<svg width="24" height="24" fill="none" xmlns="http://www.w3.org/2000/svg"><path d="M4 6.633c.14-.057.308-.117.503-.181A9.8 9.8 0 0 1 7.5 6a9.8 9.8 0 0 1 2.997.452c.195.064.363.124.503.181v10.88A11.8 11.8 0 0 0 7.5 17c-1.46 0-2.649.248-3.5.513V6.633Zm8-1.748a9.008 9.008 0 0 0-.888-.337A11.8 11.8 0 0 0 7.5 4c-1.526 0-2.755.271-3.612.548-.341.11-.675.24-1.001.389a6 6 0 0 0-.357.18l-.025.014-.009.005-.003.002c-.002.002-.248.147-.003.002A1 1 0 0 0 2 6v13a1 1 0 0 0 1.51.86l-.005.003.003-.001.001-.001.037-.02c.037-.02.098-.05.182-.09.17-.078.43-.188.775-.3A9.8 9.8 0 0 1 7.5 19a9.8 9.8 0 0 1 2.997.451c.264.085.523.185.775.3.075.035.15.072.223.112m0 0-.002-.001-.001-.001c.314.185.704.185 1.018 0l.037-.02c.037-.02.098-.05.182-.09.252-.115.511-.215.775-.3A9.8 9.8 0 0 1 16.5 19a9.8 9.8 0 0 1 2.997.451c.264.085.523.185.775.3.074.034.147.071.219.11A1 1 0 0 0 22 19V6a1 1 0 0 0-.49-.86l-.002-.001-.004-.003-.01-.005-.024-.014a6 6 0 0 0-.357-.18 9 9 0 0 0-1-.389A11.8 11.8 0 0 0 16.5 4c-1.525 0-2.755.271-3.612.548-.302.097-.598.21-.888.337m8 1.748v10.88A11.801 11.801 0 0 0 16.5 17c-1.46 0-2.649.248-3.5.513V6.633c.14-.057.308-.117.503-.181A9.8 9.8 0 0 1 16.5 6a9.8 9.8 0 0 1 2.997.452c.195.064.363.124.503.181Zm.49.228.005.002h-.001l-.004-.002Zm.001 13 .003.002-.002-.002" fill="#1F4E92"/></svg>