<svg width="25" height="26" fill="none" xmlns="http://www.w3.org/2000/svg"><path d="m18.568 9.57 5.7-5.7-2.638-2.638-5.7 5.7-1.811-.2a3.034 3.034 0 0 0-2.48.87L1.03 18.211a1.011 1.011 0 0 0 0 1.43l4.828 4.83a1.011 1.011 0 0 0 1.43 0L17.899 13.86a3.033 3.033 0 0 0 .87-2.479l-.2-1.812Z" stroke="#1F4E92" stroke-width="1.7" stroke-miterlimit="10" stroke-linecap="round" stroke-linejoin="round"/><path d="m19.406 3.457 2.637 2.637" stroke="#1F4E92" stroke-width="1.5" stroke-miterlimit="10" stroke-linecap="round" stroke-linejoin="round"/><path d="m17.26 5.603 2.637 2.637M9.743 22.016 5.71 17.983l6.583-6.582 4.033 4.033" stroke="#1F4E92" stroke-width="1.7" stroke-miterlimit="10" stroke-linecap="round" stroke-linejoin="round"/></svg>