<svg width="24" height="24" fill="none" xmlns="http://www.w3.org/2000/svg"><path fill-rule="evenodd" clip-rule="evenodd" d="M12 3.75a8.25 8.25 0 1 0 0 16.5 8.25 8.25 0 0 0 0-16.5ZM2.25 12A9.75 9.75 0 0 1 12 2.25 9.75 9.75 0 0 1 21.75 12 9.75 9.75 0 0 1 12 21.75 9.75 9.75 0 0 1 2.25 12Z" fill="#1F4E92"/><path d="M8.625 13.125a1.125 1.125 0 1 0 0-2.25 1.125 1.125 0 0 0 0 2.25Zm6.75 0a1.125 1.125 0 1 0 0-2.25 1.125 1.125 0 0 0 0 2.25Z" fill="#1F4E92"/><path fill-rule="evenodd" clip-rule="evenodd" d="M8.891 15.335a.75.75 0 0 1 1.04-.21 3.742 3.742 0 0 0 4.138 0 .75.75 0 0 1 .83 1.25 5.242 5.242 0 0 1-5.798 0 .75.75 0 0 1-.21-1.04Zm3.578-12.92a.75.75 0 0 1 .117 1.054 6.299 6.299 0 0 0-1.174 2.302 5.24 5.24 0 0 0-.143.742c-.01.078-.016.156-.019.235v.005a.75.75 0 0 0 1.5-.003.75.75 0 1 1 1.5 0 2.25 2.25 0 1 1-4.5 0v-.041l.004-.084a6.698 6.698 0 0 1 .21-1.24 7.8 7.8 0 0 1 1.45-2.854.75.75 0 0 1 1.055-.118v.002Z" fill="#1F4E92"/></svg>