<svg width="24" height="24" fill="none" xmlns="http://www.w3.org/2000/svg"><path d="M18.3 8.549a6.337 6.337 0 0 0-6.64-5.727L11.19 0H5.671v1.406h4.326l.274 1.646A6.344 6.344 0 0 0 5.7 8.55a2.113 2.113 0 0 0-1.434 1.998c0 .942.621 1.742 1.476 2.012L7.16 24h9.68l1.418-11.441a2.113 2.113 0 0 0 1.476-2.012c0-.927-.6-1.716-1.434-1.998ZM12 4.219a4.93 4.93 0 0 1 4.871 4.218h-4.275l-.703-4.217H12Zm-1.494.232.664 3.987H7.129a4.936 4.936 0 0 1 3.377-3.987Zm5.091 18.143H8.403L7.17 12.656h9.658l-1.232 9.938Zm2.028-11.344H6.375a.704.704 0 0 1 0-1.406h11.25a.704.704 0 0 1 0 1.406Z" fill="#1F4E92"/></svg>