<svg width="25" height="25" fill="none" xmlns="http://www.w3.org/2000/svg"><path d="M22.627 14.714a.753.753 0 0 0 .428-.268.74.74 0 0 0 .159-.476v-.626c0-.592-.238-1.16-.661-1.579a2.27 2.27 0 0 0-1.597-.654h-5.331l.888-.875 1.881-1.86a1.861 1.861 0 0 0 .566-1.331 1.844 1.844 0 0 0-.566-1.33l-.335-.336a.756.756 0 0 0-.903-.104 1.241 1.241 0 0 1-1.502-.182 1.212 1.212 0 0 1-.187-1.486.738.738 0 0 0-.113-.938l-.335-.33a1.905 1.905 0 0 0-1.347-.553 1.922 1.922 0 0 0-1.347.552L10.443 4.2l-7.612 7.537-.026.03-.041.041a2.22 2.22 0 0 0-.621 1.537v.618a.74.74 0 0 0 .178.49.756.756 0 0 0 .458.255c.376.06.717.25.964.537a1.576 1.576 0 0 1 0 2.055 1.607 1.607 0 0 1-.964.538.754.754 0 0 0-.458.255.74.74 0 0 0-.178.49v.613c0 .593.238 1.16.661 1.58a2.27 2.27 0 0 0 1.597.654h16.555a2.27 2.27 0 0 0 1.597-.654c.423-.42.661-.987.661-1.58v-.666a.74.74 0 0 0-.166-.462.753.753 0 0 0-.421-.26 1.606 1.606 0 0 1-.899-.557 1.575 1.575 0 0 1 0-1.98c.227-.28.544-.477.899-.556Zm-11.92-9.707.32.316a.377.377 0 0 0 .267.112.379.379 0 0 0 .34-.235.368.368 0 0 0-.084-.402l-.324-.32 1.622-1.6a1.18 1.18 0 0 1 1.625 0l.339.327a1.944 1.944 0 0 0 .3 2.392 2 2 0 0 0 2.417.3l.33.33a1.118 1.118 0 0 1 .346.805 1.107 1.107 0 0 1-.345.804L16.242 9.44l-.324-.32a.378.378 0 0 0-.642.264.369.369 0 0 0 .112.264l.32.317-1.148 1.146H4.532l6.175-6.104Zm9.915 11.252c0 .529.183 1.041.517 1.454.335.413.8.7 1.322.816v.644c0 .395-.158.774-.44 1.053a1.518 1.518 0 0 1-1.065.436h-2.904v-.64a.37.37 0 0 0-.11-.263.378.378 0 0 0-.643.263v.64H4.401c-.4 0-.782-.157-1.065-.436a1.48 1.48 0 0 1-.44-1.053v-.614c.55-.09 1.05-.371 1.41-.792a2.315 2.315 0 0 0 0-3.013c-.36-.42-.86-.701-1.41-.792v-.618c0-.386.153-.757.425-1.034l.033-.03a1.52 1.52 0 0 1 1.047-.425h12.898v.644c0 .1.04.194.11.264a.378.378 0 0 0 .643-.264v-.644h2.904c.4 0 .782.157 1.065.437.282.279.44.658.44 1.052v.64a2.366 2.366 0 0 0-1.321.82 2.321 2.321 0 0 0-.518 1.455Z" fill="#fff"/><path d="M17.675 13.959c-.1 0-.195.039-.266.109a.37.37 0 0 0-.11.263v1.012c0 .099.04.194.11.263a.378.378 0 0 0 .532 0 .37.37 0 0 0 .11-.263v-1.012a.37.37 0 0 0-.11-.263.378.378 0 0 0-.266-.11Zm0 2.854c-.1 0-.195.04-.266.11a.37.37 0 0 0-.11.263v1.005c0 .098.04.193.11.263a.378.378 0 0 0 .532 0 .37.37 0 0 0 .11-.264v-1.005a.37.37 0 0 0-.11-.263.378.378 0 0 0-.266-.109Zm-5.05-10.961a.376.376 0 0 0-.411-.082.376.376 0 0 0-.232.344c0 .099.04.193.11.263l.586.584a.379.379 0 0 0 .533-.002.37.37 0 0 0-.002-.527l-.583-.58Zm2.24 2.743a.37.37 0 0 0 0-.525l-.587-.584a.376.376 0 0 0-.412-.082.376.376 0 0 0-.232.344c0 .099.04.193.11.263l.59.584a.378.378 0 0 0 .53 0Z" fill="#fff"/></svg>