<svg width="24" height="24" fill="none" xmlns="http://www.w3.org/2000/svg"><g clip-path="url(#a)" stroke="#1F4E92" stroke-width="1.6" stroke-miterlimit="10"><path d="M12 9.736v9.282m-5.813-7.22c1.924 2.8 3.007 6.622 3.007 10.61v1.577m8.618-12.188c-1.923 2.801-3.006 6.623-3.006 10.612v1.576M0 8.67a3.469 3.469 0 0 1 3.469 3.47 3.469 3.469 0 0 1 3.469-3.47 3.469 3.469 0 0 1-3.47-3.468A3.469 3.469 0 0 1 0 8.67Zm17.063 0a3.469 3.469 0 0 1 3.468 3.47A3.469 3.469 0 0 1 24 8.67a3.469 3.469 0 0 1-3.469-3.468 3.469 3.469 0 0 1-3.468 3.468ZM2.11 23.282a1.406 1.406 0 1 0 0-2.813 1.406 1.406 0 0 0 0 2.813Zm19.78 0a1.406 1.406 0 1 0 0-2.813 1.406 1.406 0 0 0 0 2.813ZM3.863 17.094a8.052 8.052 0 0 1 2.512 5.844v1.047m13.762-6.891a8.052 8.052 0 0 0-2.512 5.844v1.047M0 15.515h1.406m21.188 0H24M2.766 1.796h1.406m15.656 0h1.406M12 1.203l1.186 1.615 1.902.629-1.17 1.626-.01 2.004L12 6.467l-1.908.61-.01-2.004-1.17-1.626 1.902-.629L12 1.203Z"/></g><defs><clipPath id="a"><path fill="#fff" d="M0 0h24v24H0z"/></clipPath></defs></svg>