<svg width="28" height="28" fill="none" xmlns="http://www.w3.org/2000/svg"><g clip-path="url(#a)"><path d="M19.119 17.656c1.172-2.66.46-5.835-3.719-6.371V7a1.4 1.4 0 0 0 1.4-1.4v-.7a.7.7 0 1 0 0-1.4.7.7 0 1 0 0-1.4v-.7A1.4 1.4 0 0 0 15.4 0h-2.8a1.4 1.4 0 0 0-1.4 1.4v.7a.7.7 0 1 0 0 1.4.7.7 0 1 0 0 1.4v.7A1.4 1.4 0 0 0 12.6 7v4.285c-4.708.604-4.635 4.292-3.719 6.371A6.952 6.952 0 0 0 7 22.4c0 3.867 3.134 5.6 7 5.6s7-1.733 7-5.6a6.952 6.952 0 0 0-1.881-4.744ZM14.7 1.4h.7v4.2h-.7V1.4Zm-2.1 0h.7v4.2h-.7V1.4ZM14 17.5a1.401 1.401 0 0 1 1.4 1.4 1.4 1.4 0 0 1-2.8 0c0-.772.628-1.4 1.4-1.4Zm0 9.1c-1.684 0-5.6-.409-5.6-4.2 0-1.397.535-2.744 1.507-3.793a1.4 1.4 0 0 0 .255-1.516c-.082-.185-1.714-3.78 2.438-4.397v3.782a2.801 2.801 0 0 0-1.4 2.424 2.8 2.8 0 0 0 1.4 2.423V23.8h2.8v-2.477a2.801 2.801 0 0 0 1.4-2.423 2.802 2.802 0 0 0-1.4-2.423v-3.783c2.6.386 3.406 2.201 2.438 4.397a1.398 1.398 0 0 0 .255 1.516A5.574 5.574 0 0 1 19.6 22.4c0 3.791-3.916 4.2-5.6 4.2Z" fill="#1F4E92"/></g><defs><clipPath id="a"><path fill="#fff" d="M0 0h28v28H0z"/></clipPath></defs></svg>