<svg width="24" height="24" fill="none" xmlns="http://www.w3.org/2000/svg"><g clip-path="url(#a)" stroke="#1F4E92" stroke-width="1.6" stroke-miterlimit="10" stroke-linecap="round" stroke-linejoin="round"><path d="M.704 18.448V12C.704 5.761 5.76.703 12 .703 18.24.703 23.297 5.761 23.297 12v6.448"/><path d="M4.064 13.834h3.31v9.463h-3.31v-9.463Zm-.978.808h.978v7.847h-.978a2.383 2.383 0 0 1-2.383-2.383v-3.081a2.383 2.383 0 0 1 2.383-2.383Zm16.849 8.655h-3.31v-9.463h3.31v9.463ZM12 5.538V12M9.154 7.153v3.231M6.326 8.002V9.42m11.348-1.417V9.42m-2.846-2.266v3.231m6.086 12.105h-.979v-7.847h.979a2.383 2.383 0 0 1 2.383 2.383v3.081a2.383 2.383 0 0 1-2.383 2.383Z"/></g><defs><clipPath id="a"><path fill="#fff" d="M0 0h24v24H0z"/></clipPath></defs></svg>