<svg width="60" height="60" fill="none" xmlns="http://www.w3.org/2000/svg"><path d="M5 30c0-9.427 0-14.143 2.93-17.07C10.86 10.002 15.573 10 25 10h10c9.428 0 14.142 0 17.07 2.93C54.998 15.86 55 20.573 55 30v5c0 9.428 0 14.142-2.93 17.07C49.14 54.998 44.428 55 35 55H25c-9.428 0-14.143 0-17.07-2.93C5.003 49.14 5 44.428 5 35v-5Z" stroke="#020919" stroke-width="2.5"/><path d="M17.5 10V6.25m25 3.75V6.25M6.25 22.5h47.5" stroke="#020919" stroke-width="2.5" stroke-linecap="round"/><path d="M45 42.5a2.5 2.5 0 1 1-5 0 2.5 2.5 0 0 1 5 0Zm0-10a2.5 2.5 0 1 1-5 0 2.5 2.5 0 0 1 5 0Zm-12.5 10a2.5 2.5 0 1 1-5 0 2.5 2.5 0 0 1 5 0Zm0-10a2.5 2.5 0 1 1-5 0 2.5 2.5 0 0 1 5 0ZM20 42.5a2.5 2.5 0 1 1-5 0 2.5 2.5 0 0 1 5 0Zm0-10a2.5 2.5 0 1 1-5 0 2.5 2.5 0 0 1 5 0Z" fill="#020919"/></svg>