<svg width="60" height="60" fill="none" xmlns="http://www.w3.org/2000/svg"><path d="M4.052 32h5.407a2.93 2.93 0 0 0-.09 1.727 2.97 2.97 0 0 0 .903 1.485l8.35 7.524h.002c.007.006.012.013.02.019L31.842 54h-.325c-.27 0-.528.105-.72.293A.992.992 0 0 0 30.5 55v4c0 .265.107.52.298.707.19.188.45.293.72.293h12.206c.27 0 .529-.105.72-.293A.991.991 0 0 0 44.74 59v-4a.991.991 0 0 0-.298-.707 1.026 1.026 0 0 0-.719-.293v-1.586l.545-.535a4.962 4.962 0 0 0 1.105-1.621 4.893 4.893 0 0 0 .385-1.915v-6.126l3.687-7.975a2.94 2.94 0 0 0 .1-2.242h7.403c.81 0 1.585-.317 2.157-.88A2.978 2.978 0 0 0 60 29v-2a.992.992 0 0 0-.298-.707 1.027 1.027 0 0 0-.72-.293h-4.068v-1c0-11.58-9.583-21-21.362-21V2h1.017c.27 0 .528-.105.72-.293a.992.992 0 0 0 0-1.414 1.026 1.026 0 0 0-.72-.293h-8.138c-.27 0-.529.105-.72.293a.992.992 0 0 0 0 1.414c.192.188.45.293.72.293h1.017v2C15.67 4 6.086 13.42 6.086 25v1H2.017c-.27 0-.528.105-.72.293A.991.991 0 0 0 1 27v2c0 .795.323 1.558.895 2.12a3.082 3.082 0 0 0 2.157.88Zm7.334.638a.98.98 0 0 1 .37-.467c.17-.114.372-.174.578-.171h.58a1.023 1.023 0 0 1 .927.586l.764 1.654v.001l1.714 3.707-4.673-4.21a.962.962 0 0 1-.26-1.1ZM42.706 58H32.535v-2h10.173v2Zm4.817-25.541a.973.973 0 0 1 .071.955l-3.779 8.172a.989.989 0 0 0-.09.414v6.343c0 .394-.078.785-.232 1.149a2.98 2.98 0 0 1-.663.973l-.842.828a.998.998 0 0 0-.298.707v2h-6.742L20.145 41.388l-3.688-7.974a.985.985 0 0 1 .07-.956 1.031 1.031 0 0 1 .856-.458h.67c.189 0 .374.05.535.148a1 1 0 0 1 .375.405l3.506 6.894c.112.22.301.39.532.481l10.173 4c.199.079.417.093.624.042l4.07-1a1.025 1.025 0 0 0 .646-.491l5.525-9.958a1.026 1.026 0 0 1 .894-.521h1.735a1.014 1.014 0 0 1 .855.459ZM20.956 32h21.055l-5.07 9.136-3.317.815-9.507-3.739L20.957 32Zm8.527-30h2.034v2h-2.034V2ZM8.12 25c0-10.477 8.67-19 19.327-19h6.104c10.657 0 19.327 8.523 19.327 19v1H8.121v-1Zm-5.087 3h54.931v1a.99.99 0 0 1-.298.707c-.19.187-.449.293-.719.293H4.052a1.03 1.03 0 0 1-.72-.293.993.993 0 0 1-.297-.707v-1Z" fill="#020919"/></svg>