<svg width="25" height="26" fill="none" xmlns="http://www.w3.org/2000/svg"><path d="M5.809 12.649c-1.417 0-2.57-1.142-2.57-2.545 0-1.404 1.153-2.546 2.57-2.546 1.416 0 2.568 1.142 2.568 2.546 0 1.403-1.152 2.545-2.568 2.545Zm0-4.376c-1.023 0-1.855.821-1.855 1.83 0 1.01.832 1.831 1.855 1.831 1.022 0 1.854-.821 1.854-1.83 0-1.01-.832-1.831-1.854-1.831Zm1.033 11.422h-4.48a.932.932 0 0 1-.933-.928V17.6c0-2.391 1.964-4.337 4.38-4.337.95 0 1.854.296 2.614.857a.357.357 0 0 1-.424.575 3.663 3.663 0 0 0-2.19-.718c-2.022 0-3.666 1.626-3.666 3.623v1.168c0 .118.098.214.22.214h4.48a.357.357 0 0 1 0 .714Zm15.796-.27h-4.48a.357.357 0 0 1 0-.715h4.48c.121 0 .22-.095.22-.213V17.33c0-1.998-1.645-3.623-3.666-3.623-.845 0-1.669.29-2.321.819a.357.357 0 0 1-.45-.555 4.416 4.416 0 0 1 2.77-.978c2.416 0 4.38 1.945 4.38 4.337v1.168a.932.932 0 0 1-.933.928Zm-3.447-6.953c-1.416 0-2.568-1.142-2.568-2.545s1.152-2.545 2.568-2.545c1.417 0 2.57 1.142 2.57 2.545 0 1.404-1.153 2.545-2.57 2.545Zm0-4.376c-1.022 0-1.854.822-1.854 1.831 0 1.01.832 1.83 1.854 1.83 1.023 0 1.855-.82 1.855-1.83 0-1.01-.832-1.83-1.855-1.83Z" fill="#020919"/><path d="M17.347 20.857H7.653c-.644 0-1.168-.52-1.168-1.16v-1.642c0-3.284 2.698-5.955 6.015-5.955 3.317 0 6.015 2.671 6.015 5.955v1.643c0 .64-.524 1.16-1.168 1.16ZM12.5 12.814c-2.923 0-5.3 2.351-5.3 5.24v1.644a.45.45 0 0 0 .453.445h9.694c.25 0 .454-.2.454-.445v-1.643c0-2.89-2.378-5.24-5.301-5.24Zm-.124-1.132c-1.82 0-3.301-1.466-3.301-3.27 0-1.803 1.48-3.27 3.3-3.27 1.821 0 3.302 1.468 3.302 3.27 0 1.804-1.481 3.27-3.301 3.27Zm0-5.825c-1.426 0-2.587 1.147-2.587 2.556s1.16 2.555 2.587 2.555c1.426 0 2.587-1.146 2.587-2.555 0-1.41-1.16-2.556-2.587-2.556Z" fill="#020919"/></svg>