<svg width="24" height="22" fill="none" xmlns="http://www.w3.org/2000/svg"><path d="M4.688 7.438v10.875c0 1.035.839 1.875 1.874 1.875h14.625c1.036 0 1.875-.84 1.875-1.875V7.438a1.874 1.874 0 0 0-1.875-1.875H6.563a1.875 1.875 0 0 0-1.875 1.875Z" stroke="#1F4E92" stroke-width="1.7" stroke-miterlimit="10"/><path d="M19.312 5.703V3.688a1.874 1.874 0 0 0-1.875-1.875H2.813A1.874 1.874 0 0 0 .939 3.688v10.874c0 1.036.839 1.876 1.874 1.876h.938" stroke="#1F4E92" stroke-width="1.7" stroke-miterlimit="10"/><path d="m13.082 13.456-2.859-3.75-5.459 7.633m16.453 2.867-6.634-8.625-3.782 5.353" stroke="#1F4E92" stroke-width="1.7" stroke-miterlimit="10"/><path d="M17.531 9.734a1.406 1.406 0 1 1 2.813 0 1.406 1.406 0 0 1-2.813 0Z" fill="#1F4E92"/></svg>