<svg width="25" height="26" fill="none" xmlns="http://www.w3.org/2000/svg"><g clip-path="url(#a)" fill="#1F4E92"><path d="M21.887 2.82C21.754 2.725 18.564.5 12.5.5S3.246 2.725 3.113 2.82a.732.732 0 0 0-.257.862l8.077 20.749A1.67 1.67 0 0 0 12.5 25.5a1.67 1.67 0 0 0 1.567-1.07l8.077-20.748a.732.732 0 0 0-.257-.862Zm-14.09 9.517-.796-2.046c.247-.328.66-.548 1.065-.548a1.317 1.317 0 0 1 0 2.632c-.064 0-.157-.011-.268-.038Zm6.643 7.098a1.317 1.317 0 0 1-2.108-1.05c0-.726.59-1.316 1.315-1.316.59 0 1.117.458 1.289 1.091l-.496 1.275Zm1.159-2.978c-.513-.528-1.207-.853-1.952-.853a2.784 2.784 0 0 0-2.78 2.78 2.784 2.784 0 0 0 2.9 2.779l-1.065 2.736a.202.202 0 0 1-.202.136.202.202 0 0 1-.202-.136L8.375 13.822a2.784 2.784 0 0 0 2.471-2.763 2.784 2.784 0 0 0-2.78-2.781c-.584 0-1.16.204-1.635.549L5.406 6.193c.877-.482 3.264-1.56 7.094-1.56 3.8 0 6.207 1.08 7.093 1.563L15.6 16.457Zm4.53-11.638c-1.151-.603-3.717-1.65-7.629-1.65-3.912 0-6.478 1.047-7.63 1.65l-.425-1.094c1.04-.564 3.752-1.76 8.055-1.76 4.276 0 7.008 1.2 8.054 1.763l-.425 1.09Z"/><path d="M15.222 6.23a2.784 2.784 0 0 0-2.78 2.78 2.784 2.784 0 0 0 2.78 2.781 2.784 2.784 0 0 0 2.78-2.78 2.784 2.784 0 0 0-2.78-2.781Zm0 4.096a1.317 1.317 0 0 1 0-2.632 1.317 1.317 0 0 1 0 2.632Z"/></g><defs><clipPath id="a"><path fill="#fff" transform="translate(0 .5)" d="M0 0h25v25H0z"/></clipPath></defs></svg>