<svg width="25" height="24" fill="none" xmlns="http://www.w3.org/2000/svg"><path d="M23.469 18.75a.844.844 0 0 0 .843-.844V16.22a.844.844 0 0 0-.464-.751l-5.062-2.531a.843.843 0 0 0-.76 0l-5.062 2.53a.843.843 0 0 0-.464.752v1.687a.844.844 0 0 0 .844.844h.844v3.375h-.844a.844.844 0 0 0 0 1.688h10.125a.844.844 0 0 0 0-1.688h-.844V18.75h.844Zm-9.282-2.008 4.22-2.11 4.218 2.11v.32h-8.438v-.32Zm1.688 2.008h1.688v3.375h-1.688V18.75Zm5.063 3.375H19.25V18.75h1.688v3.375Z" fill="#1F4E92"/><path d="M10.888 19.89a29.624 29.624 0 0 1-1.763 1.914c-1.688-1.704-6.75-7.273-6.75-13.179a6.75 6.75 0 0 1 13.5 0 11.82 11.82 0 0 1-.253 2.363.86.86 0 1 0 1.687.337c.176-.89.261-1.794.253-2.7a8.437 8.437 0 1 0-16.875 0c0 7.88 7.594 14.69 7.881 14.977a.844.844 0 0 0 1.114 0 26.579 26.579 0 0 0 2.489-2.616.843.843 0 1 0-1.283-1.097Z" fill="#1F4E92"/><path d="M9.125 3.563a5.063 5.063 0 1 0 0 10.125 5.063 5.063 0 0 0 0-10.126Zm0 8.437a3.375 3.375 0 1 1 0-6.75 3.375 3.375 0 0 1 0 6.75Z" fill="#1F4E92"/></svg>