<svg width="26" height="26" fill="none" xmlns="http://www.w3.org/2000/svg"><path d="M5.797 1.576a.454.454 0 0 0-.182.076L3.92 2.926a.401.401 0 0 0 .162.712l1.87.373.365 1.45a.401.401 0 0 0 .778-.191l-.42-1.68-.429-1.716a.401.401 0 0 0-.45-.298Zm-.182 1.079.121.495-.614-.124.493-.371Zm2.72 3.162-2.544.425a.401.401 0 1 0 .133.792l2.545-.424a.401.401 0 0 0 .274-.609.401.401 0 0 0-.407-.184Zm2.12.85-5.088.846a.401.401 0 0 0-.335.395v1.904l-2.605.243a.401.401 0 0 0-.36.44l.37 3.718-.86.084a.402.402 0 0 0-.347.51c.799 2.793 1.985 4.872 3.536 6.548-.26.094-.539.106-.772.124-.56-.012-1.131-.246-1.732-.715a.4.4 0 0 0-.645.368.402.402 0 0 0 .153.267c.693.539 1.435.866 2.21.884.686.015 1.373-.312 2.042-.79.63.442 1.283.776 1.973.79.69.013 1.377-.315 2.043-.793.61.466 1.252.805 1.93.796.696-.01 1.387-.338 2.082-.792.63.444 1.283.778 1.97.789.685.01 1.365-.318 2.024-.787.609.417 1.243.753 1.934.784.772.033 1.57-.255 2.346-.893a.402.402 0 0 0-.515-.617c-.66.544-1.236.735-1.796.71a2.271 2.271 0 0 1-.604-.12c.418-3.322 1.627-6.413 4.494-8.46.332-.238.137-.761-.269-.726l-3.683.355-3.632-3.631A.408.408 0 0 0 16 8.78l-3.266.308-1.902-2.285a.409.409 0 0 0-.377-.138Zm-.095.828 1.405 1.684-5.93.557V8.25l4.525-.755Zm5.527 2.103 3.03 3.031-15.684 1.509-.33-3.322 12.984-1.218Zm-1.58.881-.75.06a.402.402 0 1 0 .069.801l.749-.063a.401.401 0 0 0-.068-.798Zm-2.349.194-.799.068a.4.4 0 0 0-.366.434.401.401 0 0 0 .434.366l.8-.068a.402.402 0 1 0-.069-.8Zm-2.397.201-.799.067a.401.401 0 1 0 .067.798l.8-.065a.401.401 0 1 0-.068-.8Zm-2.396.2-.8.068a.4.4 0 1 0 .067.799l.8-.068a.401.401 0 0 0-.067-.8Zm-2.399.201-.64.053a.4.4 0 1 0 .068.799l.64-.053a.4.4 0 0 0-.068-.799Zm17.593 1.83C20 15.17 19.058 18.003 18.65 21a4.544 4.544 0 0 1-.352-.24.4.4 0 0 0-.494.006c-.63.514-1.21.723-1.77.712-.56-.009-1.135-.24-1.74-.715a.4.4 0 0 0-.48-.011c-.684.489-1.301.723-1.858.73-.559.007-1.087-.2-1.653-.704a.4.4 0 0 0-.522-.01c-.634.517-1.21.722-1.772.712-.56-.012-1.134-.245-1.737-.718a.401.401 0 0 0-.5.006c-.091.074-.18.141-.268.202-1.44-1.513-2.527-3.41-3.317-5.928l20.17-1.939Zm-5.89.804-.799.076a.402.402 0 1 0 .077.8l.8-.08a.401.401 0 1 0-.078-.796Zm-2.394.23-.799.077a.402.402 0 0 0 .076.8l.8-.076a.4.4 0 0 0 .318-.589.403.403 0 0 0-.395-.212Zm-2.395.232-.799.075a.403.403 0 1 0 .077.802l.8-.078a.401.401 0 1 0-.078-.8Zm-2.394.234-.799.076a.402.402 0 0 0-.334.593.4.4 0 0 0 .41.204l.8-.077a.401.401 0 0 0 .36-.439.401.401 0 0 0-.437-.357Zm-2.395.23-.8.077a.401.401 0 0 0 .078.8l.799-.076a.404.404 0 0 0 .318-.59.403.403 0 0 0-.394-.212l-.001.001Zm-2.394.232-.8.075a.403.403 0 0 0 .077.8l.8-.076a.403.403 0 0 0 .316-.588.401.401 0 0 0-.393-.211Z" fill="#fff"/></svg>