<svg width="25" height="24" fill="none" xmlns="http://www.w3.org/2000/svg"><path d="M18.38 5.219h-1.822V3.898c0-.246-.216-.48-.47-.47a.48.48 0 0 0-.47.47v1.32H9.04v-1.32c0-.246-.217-.48-.47-.47a.48.48 0 0 0-.47.47v1.32H6.278a2.357 2.357 0 0 0-1.66.689 2.346 2.346 0 0 0-.69 1.657v10.32a2.35 2.35 0 0 0 2.35 2.345h12.1a2.35 2.35 0 0 0 2.35-2.346V7.564c0-.622-.247-1.218-.687-1.658a2.352 2.352 0 0 0-1.661-.687Zm-12.102.938H8.1v.555c0 .246.216.48.47.47a.478.478 0 0 0 .47-.47v-.555h6.579v.555c0 .246.216.48.47.47a.478.478 0 0 0 .47-.47v-.555h1.82c.777 0 1.41.631 1.41 1.407V9.05H4.869V7.564a1.41 1.41 0 0 1 1.41-1.407ZM18.38 19.29H6.278a1.41 1.41 0 0 1-1.41-1.407V9.988h14.92v7.895a1.406 1.406 0 0 1-1.408 1.407Z" fill="#fff"/></svg>