<svg width="30" height="30" fill="none" xmlns="http://www.w3.org/2000/svg"><path d="m13 18 5.19-3L13 12v6Zm11.56-7.83c.13.47.22 1.1.28 1.9.07.8.1 1.49.1 2.09L25 15c0 2.19-.16 3.8-.44 4.83-.25.9-.83 1.48-1.73 1.73-.47.13-1.33.22-2.65.28-1.3.07-2.49.1-3.59.1L15 22c-4.19 0-6.8-.16-7.83-.44-.9-.25-1.48-.83-1.73-1.73-.13-.47-.22-1.1-.28-1.9-.07-.8-.1-1.49-.1-2.09L5 15c0-2.19.16-3.8.44-4.83.25-.9.83-1.48 1.73-1.73.47-.13 1.33-.22 2.65-.28 1.3-.07 2.49-.1 3.59-.1L15 8c4.19 0 6.8.16 7.83.44.9.25 1.48.83 1.73 1.73Z" fill="#fff"/></svg>