<svg width="25" height="26" viewBox="0 0 25 26" fill="none" xmlns="http://www.w3.org/2000/svg">
<path d="M18.568 9.56925L24.2675 3.8697L21.6303 1.2325L15.9308 6.93205L14.119 6.73132C13.6669 6.68122 13.2094 6.73341 12.7802 6.88403C12.351 7.03465 11.9611 7.27985 11.6395 7.60148L1.02865 18.2123C0.633679 18.6073 0.633679 19.2476 1.02865 19.6426L5.85739 24.4714C6.25236 24.8663 6.89269 24.8663 7.28766 24.4714L17.8985 13.8605C18.2201 13.5389 18.4653 13.1491 18.6159 12.7198C18.7666 12.2906 18.8188 11.8331 18.7687 11.381L18.568 9.56925Z" stroke="#1F4E92" stroke-width="1.7" stroke-miterlimit="10" stroke-linecap="round" stroke-linejoin="round"/>
<path d="M19.4056 3.45716L22.0428 6.09436" stroke="#1F4E92" stroke-width="1.5" stroke-miterlimit="10" stroke-linecap="round" stroke-linejoin="round"/>
<path d="M17.2602 5.60255L19.8974 8.23975" stroke="#1F4E92" stroke-width="1.7" stroke-miterlimit="10" stroke-linecap="round" stroke-linejoin="round"/>
<path d="M9.74309 22.0159L5.71024 17.983L12.2926 11.4007L16.3255 15.4335" stroke="#1F4E92" stroke-width="1.7" stroke-miterlimit="10" stroke-linecap="round" stroke-linejoin="round"/>
</svg>
