<svg width="24" height="24" viewBox="0 0 24 24" fill="none" xmlns="http://www.w3.org/2000/svg">
<path fill-rule="evenodd" clip-rule="evenodd" d="M12 3.75C7.44375 3.75 3.75 7.44375 3.75 12C3.75 16.5562 7.44375 20.25 12 20.25C16.5562 20.25 20.25 16.5562 20.25 12C20.25 7.44375 16.5562 3.75 12 3.75ZM2.25 12C2.25 6.615 6.615 2.25 12 2.25C17.385 2.25 21.75 6.615 21.75 12C21.75 17.385 17.385 21.75 12 21.75C6.615 21.75 2.25 17.385 2.25 12Z" fill="#1F4E92"/>
<path d="M8.625 13.125C8.92337 13.125 9.20952 13.0065 9.4205 12.7955C9.63147 12.5845 9.75 12.2984 9.75 12C9.75 11.7016 9.63147 11.4155 9.4205 11.2045C9.20952 10.9935 8.92337 10.875 8.625 10.875C8.32663 10.875 8.04048 10.9935 7.8295 11.2045C7.61853 11.4155 7.5 11.7016 7.5 12C7.5 12.2984 7.61853 12.5845 7.8295 12.7955C8.04048 13.0065 8.32663 13.125 8.625 13.125ZM15.375 13.125C15.6734 13.125 15.9595 13.0065 16.1705 12.7955C16.3815 12.5845 16.5 12.2984 16.5 12C16.5 11.7016 16.3815 11.4155 16.1705 11.2045C15.9595 10.9935 15.6734 10.875 15.375 10.875C15.0766 10.875 14.7905 10.9935 14.5795 11.2045C14.3685 11.4155 14.25 11.7016 14.25 12C14.25 12.2984 14.3685 12.5845 14.5795 12.7955C14.7905 13.0065 15.0766 13.125 15.375 13.125Z" fill="#1F4E92"/>
<path fill-rule="evenodd" clip-rule="evenodd" d="M8.89126 15.3352C9.00128 15.1696 9.17259 15.0544 9.36752 15.015C9.56246 14.9756 9.76505 15.0153 9.93076 15.1252C10.5441 15.5323 11.2639 15.7493 12 15.7493C12.7361 15.7493 13.4559 15.5323 14.0693 15.1252C14.1513 15.0707 14.2433 15.0329 14.3399 15.0139C14.4366 14.995 14.536 14.9952 14.6326 15.0147C14.7292 15.0342 14.821 15.0725 14.9027 15.1274C14.9845 15.1823 15.0546 15.2528 15.1091 15.3349C15.1636 15.4169 15.2015 15.5089 15.2204 15.6056C15.2394 15.7022 15.2392 15.8017 15.2197 15.8982C15.2002 15.9948 15.1619 16.0866 15.107 16.1683C15.0521 16.2501 14.9816 16.3202 14.8995 16.3747C14.0401 16.9453 13.0315 17.2496 12 17.2496C10.9685 17.2496 9.9599 16.9453 9.10051 16.3747C8.93484 16.2647 8.81965 16.0934 8.78027 15.8985C8.74089 15.7035 8.78129 15.501 8.89126 15.3352ZM12.4688 2.415C12.6239 2.53927 12.7234 2.72006 12.7454 2.91766C12.7673 3.11525 12.7099 3.31347 12.5858 3.46875C12.0396 4.14689 11.6399 4.93088 11.412 5.77125C11.3465 6.01474 11.2986 6.26263 11.2688 6.513C11.2594 6.59097 11.2532 6.66928 11.25 6.74775V6.753C11.2502 6.85149 11.2698 6.94898 11.3077 7.0399C11.3455 7.13082 11.401 7.21338 11.4707 7.28289C11.5405 7.35239 11.6233 7.40747 11.7144 7.44498C11.8055 7.48249 11.903 7.5017 12.0015 7.5015C12.1 7.5013 12.1975 7.48171 12.2884 7.44383C12.3793 7.40596 12.4619 7.35055 12.5314 7.28077C12.6009 7.21098 12.656 7.12819 12.6935 7.03713C12.731 6.94606 12.7502 6.84849 12.75 6.75C12.75 6.55109 12.829 6.36032 12.9697 6.21967C13.1103 6.07902 13.3011 6 13.5 6C13.6989 6 13.8897 6.07902 14.0303 6.21967C14.171 6.36032 14.25 6.55109 14.25 6.75C14.25 7.34674 14.013 7.91903 13.591 8.34099C13.169 8.76295 12.5967 9 12 9C11.4033 9 10.831 8.76295 10.409 8.34099C9.98706 7.91903 9.75001 7.34674 9.75001 6.75V6.70875L9.75376 6.62475C9.75726 6.55475 9.76551 6.4605 9.77851 6.342C9.80551 6.105 9.85876 5.77575 9.96301 5.38425C10.2442 4.34288 10.7384 3.37117 11.4143 2.5305C11.4758 2.45355 11.5519 2.38949 11.6382 2.34196C11.7245 2.29443 11.8193 2.26438 11.9173 2.25351C12.0152 2.24265 12.1143 2.25118 12.2089 2.27864C12.3036 2.30609 12.3918 2.35191 12.4688 2.4135V2.415Z" fill="#1F4E92"/>
</svg>
