<svg width="24" height="24" viewBox="0 0 24 24" fill="none" xmlns="http://www.w3.org/2000/svg">
<path d="M18.3002 8.54902C18.0009 5.33606 15.2898 2.8125 12 2.8125C11.8858 2.8125 11.7724 2.81573 11.6597 2.82173L11.1894 0H5.67188V1.40625H9.99811L10.2724 3.05222C7.80314 3.75384 5.94459 5.92078 5.69972 8.54902C4.86694 8.83125 4.26562 9.61992 4.26562 10.5469C4.26562 11.4894 4.88705 12.2893 5.74162 12.5589L7.15992 24H16.8401L18.2584 12.5589C19.113 12.2893 19.7344 11.4894 19.7344 10.5469C19.7344 9.61992 19.1331 8.83125 18.3002 8.54902ZM12 4.21875C14.4752 4.21875 16.5292 6.05545 16.8714 8.4375H12.5956L11.8928 4.22011C11.9284 4.21936 11.9641 4.21875 12 4.21875ZM10.5056 4.45097L11.17 8.4375H7.12856C7.3988 6.55669 8.73619 5.01609 10.5056 4.45097ZM15.5974 22.5938H8.40258L7.17066 12.6562H16.8293L15.5974 22.5938ZM17.625 11.25H6.375C5.9873 11.25 5.67188 10.9346 5.67188 10.5469C5.67188 10.1592 5.9873 9.84375 6.375 9.84375H17.625C18.0127 9.84375 18.3281 10.1592 18.3281 10.5469C18.3281 10.9346 18.0127 11.25 17.625 11.25Z" fill="#1F4E92"/>
</svg>
