<svg width="25" height="25" viewBox="0 0 25 25" fill="none" xmlns="http://www.w3.org/2000/svg">
<path d="M22.627 14.714C22.7967 14.6762 22.948 14.5814 23.055 14.4457C23.162 14.3099 23.2182 14.1417 23.214 13.9696V13.3443C23.214 12.752 22.9761 12.184 22.5527 11.7652C22.1293 11.3464 21.5551 11.1111 20.9563 11.1111H15.6246L16.5126 10.2364L18.394 8.37535C18.5731 8.20203 18.7155 7.99504 18.8127 7.76654C18.9099 7.53803 18.96 7.29262 18.96 7.04471C18.96 6.7968 18.9099 6.55139 18.8127 6.32288C18.7155 6.09438 18.5731 5.88739 18.394 5.71407L18.0591 5.37908C17.9406 5.26667 17.7883 5.19564 17.6253 5.17683C17.4622 5.15801 17.2974 5.19244 17.156 5.27487C16.9209 5.41435 16.6455 5.47219 16.3734 5.43919C16.1013 5.40619 15.8481 5.28424 15.6541 5.09271C15.46 4.90117 15.3362 4.65101 15.3022 4.38192C15.2682 4.11284 15.3261 3.84024 15.4666 3.60738C15.5604 3.46226 15.6004 3.28945 15.5798 3.11842C15.5592 2.94738 15.4793 2.7887 15.3537 2.66942L15.0188 2.33815C14.842 2.16304 14.632 2.02412 14.4009 1.92934C14.1697 1.83455 13.922 1.78577 13.6718 1.78577C13.4216 1.78577 13.1738 1.83455 12.9427 1.92934C12.7115 2.02412 12.5016 2.16304 12.3247 2.33815L10.4434 4.19919L2.83148 11.7364L2.80514 11.7662L2.76375 11.8071C2.36538 12.2219 2.14315 12.7722 2.14291 13.3443V13.9622C2.14072 14.1412 2.2038 14.3149 2.32059 14.4516C2.43737 14.5884 2.60004 14.6789 2.7788 14.7066C3.1545 14.7669 3.49625 14.9575 3.74289 15.2442C3.98953 15.531 4.12497 15.8952 4.12497 16.2717C4.12497 16.6482 3.98953 17.0124 3.74289 17.2992C3.49625 17.586 3.1545 17.7766 2.7788 17.8369C2.60004 17.8646 2.43737 17.9551 2.32059 18.0918C2.2038 18.2285 2.14072 18.4023 2.14291 18.5813V19.1954C2.14291 19.7877 2.38076 20.3557 2.80415 20.7746C3.22753 21.1934 3.80176 21.4287 4.40052 21.4287H20.9563C21.5551 21.4287 22.1293 21.1934 22.5527 20.7746C22.9761 20.3557 23.214 19.7877 23.214 19.1954V18.5292C23.213 18.3609 23.1545 18.1979 23.0479 18.0668C22.9413 17.9356 22.7929 17.8441 22.627 17.8071C22.2723 17.7277 21.9554 17.5314 21.7284 17.2504C21.5014 16.9693 21.3778 16.6203 21.3778 16.2606C21.3778 15.9008 21.5014 15.5518 21.7284 15.2708C21.9554 14.9897 22.2723 14.7934 22.627 14.714ZM10.7068 5.00688L11.0266 5.32325C11.0615 5.35842 11.103 5.3864 11.1489 5.40557C11.1947 5.42474 11.244 5.43471 11.2938 5.43492C11.3675 5.43317 11.4392 5.41 11.4997 5.3683C11.5603 5.32659 11.6071 5.26818 11.6344 5.20035C11.6617 5.13252 11.6682 5.05825 11.6531 4.98679C11.638 4.91533 11.602 4.84983 11.5496 4.79844L11.226 4.47834L12.8478 2.87785C13.0664 2.67039 13.3576 2.55455 13.6605 2.55455C13.9634 2.55455 14.2546 2.67039 14.4732 2.87785L14.8119 3.20539C14.5857 3.58016 14.4924 4.01883 14.5467 4.45198C14.6009 4.88512 14.7996 5.288 15.1114 5.59683C15.4232 5.90567 15.8302 6.10282 16.268 6.15709C16.7058 6.21136 17.1494 6.11964 17.5285 5.89645L17.8597 6.22772C17.9689 6.33188 18.0558 6.45676 18.1152 6.5949C18.1745 6.73303 18.2051 6.88159 18.2051 7.03168C18.2051 7.18178 18.1745 7.33034 18.1152 7.46847C18.0558 7.60661 17.9689 7.73149 17.8597 7.83565L16.2417 9.43986L15.9181 9.11977C15.8476 9.05044 15.7522 9.01153 15.6528 9.01153C15.5534 9.01153 15.4581 9.05044 15.3876 9.11977C15.3523 9.15437 15.3243 9.19553 15.3052 9.24089C15.2861 9.28625 15.2763 9.3349 15.2763 9.38403C15.2763 9.43317 15.2861 9.48182 15.3052 9.52717C15.3243 9.57253 15.3523 9.6137 15.3876 9.6483L15.7074 9.96468L14.5598 11.1111H4.53221L10.7068 5.00688ZM20.6215 16.2587C20.6222 16.7875 20.8047 17.3004 21.1391 17.713C21.4735 18.1256 21.9398 18.4134 22.4614 18.5292V19.1731C22.4614 19.5679 22.3029 19.9466 22.0206 20.2258C21.7383 20.505 21.3555 20.6619 20.9563 20.6619H18.0516V20.0217C18.0516 19.923 18.0119 19.8283 17.9413 19.7585C17.8708 19.6887 17.7751 19.6495 17.6753 19.6495C17.5755 19.6495 17.4798 19.6887 17.4092 19.7585C17.3387 19.8283 17.299 19.923 17.299 20.0217V20.6619H4.40052C4.00135 20.6619 3.61853 20.505 3.33627 20.2258C3.05402 19.9466 2.89545 19.5679 2.89545 19.1731V18.5589C3.44551 18.4683 3.94525 18.1876 4.30573 17.7668C4.66621 17.3459 4.86405 16.8122 4.86405 16.2606C4.86405 15.7089 4.66621 15.1752 4.30573 14.7543C3.94525 14.3335 3.44551 14.0528 2.89545 13.9622V13.3443C2.89605 12.9579 3.04852 12.5868 3.32063 12.3096L3.35449 12.2798C3.63418 12.0093 4.00935 11.8571 4.40052 11.8555H17.299V12.4994C17.299 12.5981 17.3387 12.6928 17.4092 12.7626C17.4798 12.8324 17.5755 12.8716 17.6753 12.8716C17.7751 12.8716 17.8708 12.8324 17.9413 12.7626C18.0119 12.6928 18.0516 12.5981 18.0516 12.4994V11.8555H20.9563C21.3555 11.8555 21.7383 12.0123 22.0206 12.2916C22.3029 12.5708 22.4614 12.9495 22.4614 13.3443V13.9845C21.9398 14.1016 21.4738 14.3903 21.1396 14.8034C20.8053 15.2165 20.6227 15.7296 20.6215 16.2587Z" fill="white"/>
<path d="M17.6753 13.9585C17.5755 13.9585 17.4798 13.9977 17.4092 14.0675C17.3386 14.1373 17.299 14.232 17.299 14.3307V15.3431C17.299 15.4418 17.3386 15.5365 17.4092 15.6063C17.4798 15.6761 17.5755 15.7153 17.6753 15.7153C17.7751 15.7153 17.8708 15.6761 17.9413 15.6063C18.0119 15.5365 18.0515 15.4418 18.0515 15.3431V14.3307C18.0515 14.232 18.0119 14.1373 17.9413 14.0675C17.8708 13.9977 17.7751 13.9585 17.6753 13.9585ZM17.6753 16.8133C17.5755 16.8133 17.4798 16.8525 17.4092 16.9223C17.3386 16.9921 17.299 17.0868 17.299 17.1855V18.1905C17.299 18.2892 17.3386 18.3839 17.4092 18.4537C17.4798 18.5235 17.5755 18.5627 17.6753 18.5627C17.7751 18.5627 17.8708 18.5235 17.9413 18.4537C18.0119 18.3839 18.0515 18.2892 18.0515 18.1905V17.1855C18.0515 17.0868 18.0119 16.9921 17.9413 16.9223C17.8708 16.8525 17.7751 16.8133 17.6753 16.8133ZM12.6257 5.8518C12.5908 5.81691 12.5491 5.78922 12.5033 5.77032C12.4574 5.75143 12.4083 5.7417 12.3586 5.7417C12.3089 5.7417 12.2597 5.75143 12.2139 5.77032C12.168 5.78922 12.1264 5.81691 12.0914 5.8518C12.0214 5.92153 11.982 6.01587 11.982 6.1142C11.982 6.21253 12.0214 6.30687 12.0914 6.37661L12.6784 6.96097C12.7493 7.03057 12.8452 7.06947 12.945 7.06912C13.0449 7.06877 13.1405 7.0292 13.2108 6.95911C13.2812 6.88903 13.3205 6.79416 13.3202 6.69539C13.3198 6.59662 13.2798 6.50204 13.209 6.43244L12.6257 5.8518ZM14.8645 8.59496C14.9346 8.52523 14.974 8.43089 14.974 8.33256C14.974 8.23423 14.9346 8.13989 14.8645 8.07015L14.2776 7.48579C14.2426 7.4509 14.201 7.42321 14.1551 7.40431C14.1093 7.38542 14.0601 7.37569 14.0104 7.37569C13.9607 7.37569 13.9116 7.38542 13.8657 7.40431C13.8199 7.42321 13.7782 7.4509 13.7433 7.48579C13.6732 7.55552 13.6338 7.64986 13.6338 7.74819C13.6338 7.84652 13.6732 7.94086 13.7433 8.0106L14.334 8.59496C14.3692 8.62946 14.4109 8.65675 14.4567 8.67528C14.5025 8.6938 14.5516 8.70319 14.6012 8.7029C14.6999 8.70249 14.7945 8.66373 14.8645 8.59496Z" fill="white"/>
</svg>
