<svg width="24" height="24" viewBox="0 0 24 24" fill="none" xmlns="http://www.w3.org/2000/svg">
<g clip-path="url(#clip0_1_499)">
<path d="M12 9.73641V19.0177M6.1875 11.7971C8.11111 14.5983 9.19397 18.4203 9.19397 22.4086V23.9846M17.8125 11.7971C15.8889 14.5983 14.806 18.4203 14.806 22.4086V23.9846M0 8.67033C1.91573 8.67033 3.46875 10.2233 3.46875 12.1391C3.46875 10.2233 5.02177 8.67033 6.9375 8.67033C5.02177 8.67033 3.46875 7.11731 3.46875 5.20158C3.46875 7.11736 1.91573 8.67033 0 8.67033ZM17.0625 8.67033C18.9782 8.67033 20.5312 10.2233 20.5312 12.1391C20.5312 10.2233 22.0843 8.67033 24 8.67033C22.0843 8.67033 20.5312 7.11731 20.5312 5.20158C20.5312 7.11736 18.9782 8.67033 17.0625 8.67033Z" stroke="#1F4E92" stroke-width="1.6" stroke-miterlimit="10"/>
<path d="M2.10938 23.2815C2.88603 23.2815 3.51562 22.6519 3.51562 21.8753C3.51562 21.0986 2.88603 20.469 2.10938 20.469C1.33272 20.469 0.703125 21.0986 0.703125 21.8753C0.703125 22.6519 1.33272 23.2815 2.10938 23.2815Z" stroke="#1F4E92" stroke-width="1.6" stroke-miterlimit="10"/>
<path d="M21.8906 23.2815C22.6673 23.2815 23.2969 22.6519 23.2969 21.8753C23.2969 21.0986 22.6673 20.469 21.8906 20.469C21.114 20.469 20.4844 21.0986 20.4844 21.8753C20.4844 22.6519 21.114 23.2815 21.8906 23.2815Z" stroke="#1F4E92" stroke-width="1.6" stroke-miterlimit="10"/>
<path d="M3.86264 17.094C5.43436 18.5848 6.375 20.6823 6.375 22.9384V23.9846M20.1374 17.094C18.5656 18.5848 17.625 20.6823 17.625 22.9384V23.9846M0 15.5145H1.40625M22.5938 15.5145H24M2.76562 1.79616H4.17188M19.8281 1.79616H21.2344M12 1.20338L13.1856 2.81813L15.0878 3.44677L13.9184 5.07333L13.9083 7.07663L12 6.46716L10.0917 7.07663L10.0816 5.07333L8.91225 3.44677L10.8144 2.81813L12 1.20338Z" stroke="#1F4E92" stroke-width="1.6" stroke-miterlimit="10"/>
</g>
<defs>
<clipPath id="clip0_1_499">
<rect width="24" height="24" fill="white"/>
</clipPath>
</defs>
</svg>
