<svg width="28" height="28" viewBox="0 0 28 28" fill="none" xmlns="http://www.w3.org/2000/svg">
<g clip-path="url(#clip0_1_307)">
<path d="M19.1187 17.656C20.2913 14.9957 19.5793 11.8213 15.4 11.2846V7C16.1734 7 16.8 6.37392 16.8 5.6V4.9C17.187 4.9 17.5 4.58696 17.5 4.2C17.5 3.81304 17.187 3.5 16.8 3.5C17.187 3.5 17.5 3.18696 17.5 2.8C17.5 2.41304 17.187 2.1 16.8 2.1V1.4C16.8 0.62608 16.1734 0 15.4 0H12.6C11.8269 0 11.2 0.62608 11.2 1.4V2.1C10.813 2.1 10.5 2.41304 10.5 2.8C10.5 3.18696 10.813 3.5 11.2 3.5C10.813 3.5 10.5 3.81304 10.5 4.2C10.5 4.58696 10.813 4.9 11.2 4.9V5.6C11.2 6.37392 11.8269 7 12.6 7V11.2846C7.89152 11.8894 7.96516 15.5772 8.88132 17.656C7.72324 18.9042 7 20.5626 7 22.4C7 26.2665 10.1343 28 14 28C17.866 28 21 26.2665 21 22.4C21 20.5626 20.2768 18.9042 19.1187 17.656ZM14.7 1.4H15.4V5.6H14.7V1.4ZM12.6 1.4H13.3V5.6H12.6V1.4ZM14 17.5C14.3711 17.5004 14.7269 17.6479 14.9893 17.9103C15.2518 18.1726 15.3995 18.5283 15.4 18.8994V18.9006C15.3994 19.6728 14.7717 20.3 14 20.3C13.2283 20.3 12.6 19.6725 12.6 18.9C12.6 18.1275 13.2283 17.5 14 17.5ZM14 26.6C12.3164 26.6 8.4 26.1912 8.4 22.4C8.4 21.0028 8.93536 19.656 9.90724 18.6074C10.0931 18.4071 10.2162 18.1569 10.2615 17.8875C10.3069 17.618 10.2724 17.3412 10.1623 17.0912C10.0803 16.9056 8.4476 13.3115 12.6 12.6938V16.4763C11.7639 16.9613 11.2 17.8657 11.2 18.8997C11.2 19.9338 11.7639 20.8379 12.6 21.3228V23.8H15.4V21.3231C16.2361 20.8382 16.8 19.9338 16.8 18.9C16.8 17.8662 16.2361 16.9616 15.4 16.4766V12.6938C17.9995 13.0802 18.8062 14.8954 17.8377 17.0912C17.7273 17.3412 17.6926 17.618 17.7379 17.8875C17.7833 18.157 17.9066 18.4073 18.0928 18.6074C19.0646 19.656 19.6 21.0028 19.6 22.4C19.6 26.1912 15.6839 26.6 14 26.6Z" fill="#1F4E92"/>
</g>
<defs>
<clipPath id="clip0_1_307">
<rect width="28" height="28" fill="white"/>
</clipPath>
</defs>
</svg>
