<svg width="60" height="60" viewBox="0 0 60 60" fill="none" xmlns="http://www.w3.org/2000/svg">
<path d="M5 52.9825C6.7125 55.61 8.9275 55.61 10.6825 52.9825C16.325 44.3525 21.7 59.19 25.6825 53.0825C31.7575 43.9225 36.1275 59.805 40.6825 52.9825C46.6225 43.895 50.325 58.945 55 53.96M8.93 42.5L5.1875 31.615C4.51 29.6425 5.7575 27.5 7.5825 27.5H52.145C59.88 27.5 49.985 42.5 44.9925 42.5M45 27.5L38.0025 18.7525C37.0657 17.5817 35.8776 16.6365 34.5262 15.987C33.1747 15.3374 31.6945 15.0001 30.195 15H20C18.6739 15 17.4021 15.5268 16.4645 16.4645C15.5268 17.4021 15 18.6739 15 20V27.5M25 15V7.5C25 6.83696 24.7366 6.20107 24.2678 5.73223C23.7989 5.26339 23.163 5 22.5 5H20" stroke="#020919" stroke-width="2" stroke-linecap="round" stroke-linejoin="round"/>
</svg>
