<svg width="60" height="60" viewBox="0 0 60 60" fill="none" xmlns="http://www.w3.org/2000/svg">
<path d="M5 30C5 20.5725 5 15.8575 7.93 12.93C10.86 10.0025 15.5725 10 25 10H35C44.4275 10 49.1425 10 52.07 12.93C54.9975 15.86 55 20.5725 55 30V35C55 44.4275 55 49.1425 52.07 52.07C49.14 54.9975 44.4275 55 35 55H25C15.5725 55 10.8575 55 7.93 52.07C5.0025 49.14 5 44.4275 5 35V30Z" stroke="#020919" stroke-width="2.5"/>
<path d="M17.5 10V6.25M42.5 10V6.25M6.25 22.5H53.75" stroke="#020919" stroke-width="2.5" stroke-linecap="round"/>
<path d="M45 42.5C45 43.163 44.7366 43.7989 44.2678 44.2678C43.7989 44.7366 43.163 45 42.5 45C41.837 45 41.2011 44.7366 40.7322 44.2678C40.2634 43.7989 40 43.163 40 42.5C40 41.837 40.2634 41.2011 40.7322 40.7322C41.2011 40.2634 41.837 40 42.5 40C43.163 40 43.7989 40.2634 44.2678 40.7322C44.7366 41.2011 45 41.837 45 42.5ZM45 32.5C45 33.163 44.7366 33.7989 44.2678 34.2678C43.7989 34.7366 43.163 35 42.5 35C41.837 35 41.2011 34.7366 40.7322 34.2678C40.2634 33.7989 40 33.163 40 32.5C40 31.837 40.2634 31.2011 40.7322 30.7322C41.2011 30.2634 41.837 30 42.5 30C43.163 30 43.7989 30.2634 44.2678 30.7322C44.7366 31.2011 45 31.837 45 32.5ZM32.5 42.5C32.5 43.163 32.2366 43.7989 31.7678 44.2678C31.2989 44.7366 30.663 45 30 45C29.337 45 28.7011 44.7366 28.2322 44.2678C27.7634 43.7989 27.5 43.163 27.5 42.5C27.5 41.837 27.7634 41.2011 28.2322 40.7322C28.7011 40.2634 29.337 40 30 40C30.663 40 31.2989 40.2634 31.7678 40.7322C32.2366 41.2011 32.5 41.837 32.5 42.5ZM32.5 32.5C32.5 33.163 32.2366 33.7989 31.7678 34.2678C31.2989 34.7366 30.663 35 30 35C29.337 35 28.7011 34.7366 28.2322 34.2678C27.7634 33.7989 27.5 33.163 27.5 32.5C27.5 31.837 27.7634 31.2011 28.2322 30.7322C28.7011 30.2634 29.337 30 30 30C30.663 30 31.2989 30.2634 31.7678 30.7322C32.2366 31.2011 32.5 31.837 32.5 32.5ZM20 42.5C20 43.163 19.7366 43.7989 19.2678 44.2678C18.7989 44.7366 18.163 45 17.5 45C16.837 45 16.2011 44.7366 15.7322 44.2678C15.2634 43.7989 15 43.163 15 42.5C15 41.837 15.2634 41.2011 15.7322 40.7322C16.2011 40.2634 16.837 40 17.5 40C18.163 40 18.7989 40.2634 19.2678 40.7322C19.7366 41.2011 20 41.837 20 42.5ZM20 32.5C20 33.163 19.7366 33.7989 19.2678 34.2678C18.7989 34.7366 18.163 35 17.5 35C16.837 35 16.2011 34.7366 15.7322 34.2678C15.2634 33.7989 15 33.163 15 32.5C15 31.837 15.2634 31.2011 15.7322 30.7322C16.2011 30.2634 16.837 30 17.5 30C18.163 30 18.7989 30.2634 19.2678 30.7322C19.7366 31.2011 20 31.837 20 32.5Z" fill="#020919"/>
</svg>
