<svg width="60" height="60" viewBox="0 0 60 60" fill="none" xmlns="http://www.w3.org/2000/svg">
<path d="M4.05172 32H9.45874C9.25607 32.5543 9.22512 33.1553 9.36982 33.7269C9.51451 34.2986 9.82834 34.8152 10.2716 35.2115L18.6229 42.7365L18.6237 42.7357C18.6307 42.742 18.6364 42.749 18.6442 42.755L31.842 54H31.5172C31.2475 54 30.9887 54.1054 30.7979 54.2929C30.6072 54.4804 30.5 54.7348 30.5 55V59C30.5 59.2652 30.6072 59.5196 30.7979 59.7071C30.9887 59.8946 31.2475 60 31.5172 60H43.7241C43.9939 60 44.2527 59.8946 44.4434 59.7071C44.6342 59.5196 44.7414 59.2652 44.7414 59V55C44.7414 54.7348 44.6342 54.4804 44.4434 54.2929C44.2527 54.1054 43.9939 54 43.7241 54V52.4141L44.2689 51.8786C44.7427 51.4154 45.1183 50.8645 45.374 50.2576C45.6297 49.6507 45.7605 49 45.7586 48.3431V42.2166L49.4461 34.2416C49.7742 33.5355 49.8096 32.7314 49.5448 32H56.9483C57.7574 31.9991 58.533 31.6827 59.1051 31.1203C59.6772 30.5579 59.9991 29.7954 60 29V27C60 26.7348 59.8928 26.4804 59.7021 26.2929C59.5113 26.1054 59.2525 26 58.9828 26H54.9138V25C54.9138 13.4205 45.3309 4 33.5517 4V2H34.569C34.8388 2 35.0975 1.89464 35.2883 1.70711C35.479 1.51957 35.5862 1.26522 35.5862 1C35.5862 0.734784 35.479 0.48043 35.2883 0.292893C35.0975 0.105357 34.8388 0 34.569 0H26.431C26.1612 0 25.9025 0.105357 25.7117 0.292893C25.521 0.48043 25.4138 0.734784 25.4138 1C25.4138 1.26522 25.521 1.51957 25.7117 1.70711C25.9025 1.89464 26.1612 2 26.431 2H27.4483V4C15.6691 4 6.08621 13.4205 6.08621 25V26H2.01724C1.74745 26 1.48871 26.1054 1.29794 26.2929C1.10717 26.4804 1 26.7348 1 27V29C1.00094 29.7954 1.32276 30.5579 1.89487 31.1203C2.46698 31.6827 3.24265 31.9991 4.05172 32ZM11.3857 32.6375C11.4572 32.4479 11.5868 32.2848 11.7566 32.1706C11.9264 32.0565 12.128 31.9969 12.3337 32H12.9144C13.1097 32.0002 13.3008 32.0556 13.4649 32.1595C13.6291 32.2634 13.7595 32.4115 13.8405 32.5861L14.6052 34.2399V34.2414L16.3193 37.9482L11.6463 33.7375C11.4925 33.6032 11.3848 33.4252 11.3381 33.2282C11.2914 33.0312 11.308 32.8248 11.3857 32.6375ZM42.7069 58H32.5345V56H42.7069V58ZM47.5233 32.4586C47.6169 32.5987 47.6726 32.76 47.685 32.9271C47.6974 33.0943 47.6661 33.2618 47.5941 33.4137L43.8153 41.5861C43.7553 41.7161 43.7242 41.8572 43.7241 42V48.3431C43.7252 48.7373 43.6468 49.1277 43.4934 49.4918C43.34 49.8559 43.1146 50.1865 42.8304 50.4645L41.9876 51.2929C41.8931 51.3857 41.8182 51.496 41.7671 51.6173C41.716 51.7386 41.6896 51.8687 41.6897 52V54H34.9484L20.1445 41.3875L16.457 33.4139C16.3865 33.2615 16.3561 33.0942 16.3685 32.9272C16.3809 32.7603 16.4357 32.5991 16.5279 32.4584C16.6201 32.3177 16.7468 32.202 16.8963 32.1219C17.0458 32.0418 17.2134 31.9999 17.3837 32H18.0529C18.242 31.9993 18.4274 32.0508 18.5883 32.1485C18.7491 32.2462 18.8789 32.3862 18.9628 32.5527L22.4695 39.4473C22.5809 39.6663 22.7702 39.8375 23.0015 39.9285L33.1739 43.9285C33.3725 44.0065 33.591 44.0211 33.7984 43.9701L37.8674 42.9701C38.0038 42.9366 38.1317 42.8756 38.2429 42.7911C38.3542 42.7065 38.4464 42.6002 38.5137 42.4789L44.0388 32.5211C44.1264 32.3634 44.2555 32.2317 44.4127 32.14C44.5699 32.0483 44.7493 32 44.9321 32H46.6683C46.8387 31.9985 47.0068 32.0398 47.1564 32.1201C47.3061 32.2003 47.4324 32.3169 47.5233 32.4586ZM20.9562 32H42.0106L36.9413 41.1362L33.6241 41.9514L24.1168 38.2125L20.9562 32ZM29.4828 2H31.5172V4H29.4828V2ZM8.12069 25C8.12069 14.5234 16.791 6 27.4483 6H33.5517C44.209 6 52.8793 14.5234 52.8793 25V26H8.12069V25ZM3.03448 28H57.9655V29C57.9652 29.2651 57.8579 29.5193 57.6672 29.7068C57.4765 29.8942 57.218 29.9997 56.9483 30H4.05172C3.78203 29.9997 3.52346 29.8942 3.33276 29.7068C3.14206 29.5193 3.03479 29.2651 3.03448 29V28Z" fill="#020919"/>
</svg>
