<svg width="25" height="26" viewBox="0 0 25 26" fill="none" xmlns="http://www.w3.org/2000/svg">
<path d="M5.80861 12.6485C4.3921 12.6485 3.23973 11.5066 3.23973 10.1035C3.23973 8.70023 4.3921 7.55831 5.80861 7.55831C7.225 7.55831 8.37714 8.70005 8.37714 10.1035C8.37714 11.5068 7.225 12.6485 5.80861 12.6485ZM5.80861 8.2726C4.78585 8.2726 3.95402 9.09398 3.95402 10.1035C3.95402 11.1129 4.78585 11.9342 5.80861 11.9342C6.83107 11.9342 7.66286 11.1129 7.66286 10.1035C7.66286 9.09398 6.83107 8.2726 5.80861 8.2726ZM6.84205 19.6951H2.36205C1.84732 19.6951 1.42857 19.279 1.42857 18.7675V17.5992C1.42857 15.2077 3.39339 13.2619 5.80861 13.2619C6.75852 13.2619 7.66272 13.5584 8.42268 14.1191C8.49889 14.1753 8.54963 14.2596 8.56376 14.3533C8.57788 14.4469 8.55422 14.5424 8.49799 14.6186C8.44171 14.6948 8.35751 14.7455 8.26387 14.7596C8.17023 14.7738 8.07481 14.7501 7.99857 14.694C7.36223 14.2246 6.60504 13.9762 5.80861 13.9762C3.78732 13.9762 2.14286 15.6017 2.14286 17.5992V18.7675C2.14286 18.885 2.2412 18.9808 2.36205 18.9808H6.84223C7.03928 18.9808 7.19937 19.1407 7.19937 19.3379C7.19937 19.535 7.03928 19.6951 6.84205 19.6951V19.6951ZM22.6379 19.4248H18.1579C17.9609 19.4248 17.8008 19.2649 17.8008 19.0676C17.8008 18.8706 17.9609 18.7105 18.1579 18.7105H22.6381C22.759 18.7105 22.8573 18.615 22.8573 18.4974V17.3292C22.8573 15.3313 21.2129 13.7061 19.1916 13.7061C18.3474 13.7061 17.5232 13.9968 16.8708 14.5249C16.7177 14.6489 16.4929 14.6253 16.3686 14.4721C16.2446 14.3188 16.2679 14.0938 16.4216 13.9696C17.2006 13.3392 18.1843 12.9918 19.1916 12.9918C21.6066 12.9918 23.5714 14.9375 23.5714 17.3292V18.4974C23.5714 19.0087 23.1527 19.4248 22.6379 19.4248ZM19.1914 12.472C17.775 12.472 16.6229 11.3303 16.6229 9.92701C16.6229 8.52371 17.775 7.38184 19.1914 7.38184C20.6079 7.38184 21.7603 8.52358 21.7603 9.92701C21.7603 11.3305 20.6077 12.472 19.1914 12.472ZM19.1914 8.09612C18.1689 8.09612 17.3371 8.91751 17.3371 9.92701C17.3371 10.9365 18.1689 11.7577 19.1914 11.7577C20.2141 11.7577 21.046 10.9365 21.046 9.92701C21.046 8.91751 20.214 8.09612 19.1914 8.09612Z" fill="#020919"/>
<path d="M17.3472 20.8571H7.65275C7.00874 20.8571 6.4849 20.3371 6.4849 19.6978V18.0547C6.4849 14.771 9.18298 12.0996 12.5 12.0996C15.817 12.0996 18.5151 14.771 18.5151 18.0547V19.6978C18.5151 20.3371 17.9912 20.8571 17.3472 20.8571ZM12.5 12.8141C9.57709 12.8141 7.19918 15.1651 7.19918 18.0549V19.698C7.19918 19.9433 7.40267 20.143 7.65275 20.143H17.347C17.5971 20.143 17.8006 19.9433 17.8006 19.698V18.0549C17.8008 15.1651 15.4229 12.8141 12.5 12.8141ZM12.3758 11.6823C10.5559 11.6823 9.07503 10.2155 9.07503 8.41238C9.07503 6.60943 10.5558 5.14282 12.3759 5.14282C14.1961 5.14282 15.6768 6.60956 15.6768 8.41255C15.6768 10.2157 14.1959 11.6823 12.3759 11.6823H12.3758ZM12.3758 5.85711C10.9497 5.85711 9.78932 7.00354 9.78932 8.41255C9.78932 9.8218 10.9497 10.9682 12.3758 10.9682C13.8021 10.9682 14.9625 9.82175 14.9625 8.41255C14.9625 7.00354 13.8021 5.85711 12.3759 5.85711H12.3758Z" fill="#020919"/>
</svg>
