<svg width="24" height="22" viewBox="0 0 24 22" fill="none" xmlns="http://www.w3.org/2000/svg">
<path d="M4.6875 7.43754V18.3125C4.6875 19.3481 5.52698 20.1875 6.56249 20.1875H21.1875C22.223 20.1875 23.0624 19.3481 23.0624 18.3125V7.43754C23.0624 6.40198 22.223 5.56254 21.1875 5.56254H6.56249C5.52698 5.56254 4.6875 6.40198 4.6875 7.43754Z" stroke="#1F4E92" stroke-width="1.7" stroke-miterlimit="10"/>
<path d="M19.3124 5.70316V3.68754C19.3124 2.65198 18.473 1.81254 17.4375 1.81254H2.81249C1.77698 1.81254 0.9375 2.65198 0.9375 3.68754V14.5625C0.9375 15.5981 1.77698 16.4375 2.81249 16.4375H3.74999" stroke="#1F4E92" stroke-width="1.7" stroke-miterlimit="10"/>
<path d="M13.0825 13.4564L10.2232 9.70645L4.76407 17.339" stroke="#1F4E92" stroke-width="1.7" stroke-miterlimit="10"/>
<path d="M21.2171 20.2064L14.5825 11.5814L10.8006 16.9344" stroke="#1F4E92" stroke-width="1.7" stroke-miterlimit="10"/>
<path d="M17.5312 9.73438C17.5312 8.95776 18.1608 8.32813 18.9374 8.32813C19.7141 8.32813 20.3437 8.95776 20.3437 9.73438C20.3437 10.511 19.7141 11.1406 18.9374 11.1406C18.1608 11.1406 17.5312 10.511 17.5312 9.73438Z" fill="#1F4E92"/>
</svg>
