<svg width="25" height="26" viewBox="0 0 25 26" fill="none" xmlns="http://www.w3.org/2000/svg">
<g clip-path="url(#clip0_1_300)">
<path d="M21.8866 2.81968C21.7538 2.7249 18.5645 0.5 12.5 0.5C6.4355 0.5 3.24619 2.7249 3.11342 2.81968C2.98078 2.91427 2.88347 3.0504 2.83687 3.20651C2.79027 3.36262 2.79706 3.52982 2.85615 3.68164L10.9332 24.4308C11.1861 25.0803 11.8011 25.5 12.5 25.5C13.1989 25.5 13.8139 25.0803 14.0668 24.4308L22.1438 3.68164C22.2029 3.52982 22.2097 3.36262 22.1631 3.20651C22.1165 3.0504 22.0192 2.91427 21.8866 2.81968ZM7.79751 12.3374L7.00068 10.2905C7.24809 9.96265 7.6601 9.74287 8.06552 9.74287C8.79111 9.74287 9.38144 10.3332 9.38144 11.0588C9.38144 11.7844 8.79111 12.3747 8.06552 12.3747C8.002 12.3747 7.90859 12.3635 7.79751 12.3374ZM14.4395 19.4351C14.2116 19.6078 13.9333 19.7011 13.6473 19.7006C12.9217 19.7006 12.3313 19.1103 12.3313 18.3847C12.3313 17.659 12.9217 17.0687 13.6473 17.0687C14.2362 17.0687 14.7642 17.527 14.9358 18.1603L14.4395 19.4351ZM15.5987 16.4572C15.086 15.9286 14.3916 15.6038 13.6473 15.6038C12.114 15.6038 10.8665 16.8513 10.8665 18.3846C10.8665 19.9179 12.114 21.1654 13.6473 21.1654C13.6874 21.1654 13.7272 21.1642 13.7671 21.1625L12.7017 23.8994C12.658 24.0116 12.5679 24.0352 12.5 24.0352C12.4321 24.0352 12.342 24.0116 12.2983 23.8994L8.37539 13.8218C9.76338 13.6672 10.8463 12.4873 10.8463 11.0587C10.8463 9.52544 9.59887 8.27798 8.06557 8.27798C7.48232 8.27798 6.90508 8.48223 6.43091 8.82661L5.40586 6.19336C6.28276 5.71089 8.67026 4.6334 12.5 4.6334C16.2999 4.6334 18.7075 5.71343 19.5932 6.19585L15.5987 16.4572ZM20.1292 4.81875C18.9776 4.21636 16.4123 3.16855 12.5 3.16855C8.58769 3.16855 6.02236 4.21636 4.87075 4.81875L4.44502 3.72515C5.48408 3.16143 8.19702 1.96484 12.5 1.96484C16.776 1.96484 19.5083 3.16499 20.554 3.72764L20.1292 4.81875Z" fill="#1F4E92"/>
<path d="M15.2221 6.22961C13.6888 6.22961 12.4413 7.47707 12.4413 9.01042C12.4413 10.5437 13.6888 11.7912 15.2221 11.7912C16.7554 11.7912 18.0029 10.5437 18.0029 9.01042C18.0029 7.47712 16.7554 6.22961 15.2221 6.22961ZM15.2221 10.3263C14.4965 10.3263 13.9062 9.73601 13.9062 9.01042C13.9062 8.28479 14.4965 7.69446 15.2221 7.69446C15.9477 7.69446 16.538 8.28479 16.538 9.01042C16.538 9.73601 15.9477 10.3263 15.2221 10.3263Z" fill="#1F4E92"/>
</g>
<defs>
<clipPath id="clip0_1_300">
<rect width="25" height="25" fill="white" transform="translate(0 0.5)"/>
</clipPath>
</defs>
</svg>
