<svg width="25" height="24" viewBox="0 0 25 24" fill="none" xmlns="http://www.w3.org/2000/svg">
<path d="M23.4688 18.75C23.6925 18.75 23.9071 18.6611 24.0654 18.5029C24.2236 18.3446 24.3125 18.13 24.3125 17.9063V16.2188C24.312 16.0629 24.2684 15.9103 24.1865 15.7778C24.1046 15.6452 23.9876 15.5379 23.8484 15.4678L18.7859 12.9366C18.6682 12.8772 18.5381 12.8463 18.4062 12.8463C18.2744 12.8463 18.1443 12.8772 18.0266 12.9366L12.9641 15.4678C12.8249 15.5379 12.7079 15.6452 12.626 15.7778C12.5441 15.9103 12.5005 16.0629 12.5 16.2188V17.9063C12.5 18.13 12.5889 18.3446 12.7471 18.5029C12.9054 18.6611 13.12 18.75 13.3438 18.75H14.1875V22.125H13.3438C13.12 22.125 12.9054 22.2139 12.7471 22.3721C12.5889 22.5304 12.5 22.745 12.5 22.9688C12.5 23.1925 12.5889 23.4071 12.7471 23.5654C12.9054 23.7236 13.12 23.8125 13.3438 23.8125H23.4688C23.6925 23.8125 23.9071 23.7236 24.0654 23.5654C24.2236 23.4071 24.3125 23.1925 24.3125 22.9688C24.3125 22.745 24.2236 22.5304 24.0654 22.3721C23.9071 22.2139 23.6925 22.125 23.4688 22.125H22.625V18.75H23.4688ZM14.1875 16.7419L18.4062 14.6325L22.625 16.7419V17.0625H14.1875V16.7419ZM15.875 18.75H17.5625V22.125H15.875V18.75ZM20.9375 22.125H19.25V18.75H20.9375V22.125Z" fill="#1F4E92"/>
<path d="M10.8884 19.8891C10.1797 20.7328 9.54688 21.3825 9.125 21.8044C7.4375 20.1 2.375 14.5312 2.375 8.625C2.375 6.83479 3.08616 5.1179 4.35203 3.85203C5.6179 2.58616 7.33479 1.875 9.125 1.875C10.9152 1.875 12.6321 2.58616 13.898 3.85203C15.1638 5.1179 15.875 6.83479 15.875 8.625C15.8702 9.41901 15.7854 10.2105 15.6219 10.9875C15.5997 11.0983 15.5996 11.2124 15.6215 11.3232C15.6435 11.4341 15.687 11.5395 15.7497 11.6335C15.8124 11.7276 15.8929 11.8083 15.9868 11.8712C16.0807 11.9341 16.1861 11.9778 16.2969 12C16.4077 12.0222 16.5218 12.0223 16.6326 12.0004C16.7435 11.9784 16.8489 11.9349 16.9429 11.8722C17.0369 11.8095 17.1177 11.7289 17.1806 11.635C17.2434 11.5412 17.2872 11.4358 17.3094 11.325C17.4853 10.4359 17.5701 9.53126 17.5625 8.625C17.5625 6.38724 16.6736 4.24112 15.0912 2.65879C13.5089 1.07645 11.3628 0.1875 9.125 0.1875C6.88724 0.1875 4.74113 1.07645 3.15879 2.65879C1.57645 4.24112 0.6875 6.38724 0.6875 8.625C0.6875 16.5056 8.28125 23.3147 8.56813 23.6016C8.7221 23.7368 8.92005 23.8114 9.125 23.8114C9.32995 23.8114 9.5279 23.7368 9.68188 23.6016C10.5699 22.7871 11.4015 21.9132 12.1709 20.9859C12.3164 20.8159 12.3883 20.595 12.3709 20.3719C12.3535 20.1488 12.2482 19.9417 12.0781 19.7962C11.9081 19.6508 11.6872 19.5789 11.4641 19.5963C11.241 19.6137 11.0339 19.719 10.8884 19.8891Z" fill="#1F4E92"/>
<path d="M9.125 3.5625C8.12373 3.5625 7.14495 3.85941 6.31243 4.41568C5.4799 4.97196 4.83103 5.76261 4.44786 6.68766C4.06469 7.61272 3.96444 8.63062 4.15978 9.61264C4.35511 10.5947 4.83727 11.4967 5.54527 12.2047C6.25328 12.9127 7.15533 13.3949 8.13736 13.5902C9.11939 13.7856 10.1373 13.6853 11.0623 13.3021C11.9874 12.919 12.778 12.2701 13.3343 11.4376C13.8906 10.6051 14.1875 9.62627 14.1875 8.625C14.1875 7.28234 13.6541 5.99467 12.7047 5.04527C11.7553 4.09587 10.4677 3.5625 9.125 3.5625ZM9.125 12C8.45749 12 7.80497 11.8021 7.24995 11.4312C6.69494 11.0604 6.26235 10.5333 6.00691 9.91656C5.75146 9.29986 5.68463 8.62126 5.81485 7.96657C5.94508 7.31188 6.26651 6.71052 6.73852 6.23851C7.21052 5.76651 7.81189 5.44507 8.46657 5.31485C9.12126 5.18462 9.79986 5.25146 10.4166 5.50691C11.0333 5.76235 11.5604 6.19493 11.9312 6.74995C12.3021 7.30497 12.5 7.95749 12.5 8.625C12.5 9.52011 12.1444 10.3785 11.5115 11.0115C10.8786 11.6444 10.0201 12 9.125 12Z" fill="#1F4E92"/>
</svg>
