<svg width="25" height="26" viewBox="0 0 25 26" fill="none" xmlns="http://www.w3.org/2000/svg">
<path d="M11.5489 3.42705C11.8483 2.50574 13.1517 2.50574 13.4511 3.42705L15.0819 8.4463C15.2158 8.85833 15.5997 9.13729 16.033 9.13729H21.3105C22.2792 9.13729 22.682 10.3769 21.8983 10.9463L17.6287 14.0484C17.2782 14.303 17.1315 14.7544 17.2654 15.1664L18.8963 20.1857C19.1956 21.107 18.1411 21.8731 17.3574 21.3037L13.0878 18.2016C12.7373 17.947 12.2627 17.947 11.9122 18.2016L7.64258 21.3037C6.85887 21.8731 5.80439 21.107 6.10374 20.1857L7.7346 15.1664C7.86847 14.7544 7.72181 14.303 7.37132 14.0484L3.10169 10.9463C2.31798 10.3769 2.72075 9.13729 3.68948 9.13729H8.96703C9.40026 9.13729 9.78421 8.85833 9.91809 8.4463L11.5489 3.42705Z" fill="#1F4E92"/>
</svg>
