<svg width="26" height="26" viewBox="0 0 26 26" fill="none" xmlns="http://www.w3.org/2000/svg">
<path d="M5.79665 1.57615C5.73132 1.58779 5.66934 1.61362 5.61507 1.6518L3.9203 2.92581C3.85878 2.97236 3.81199 3.03566 3.78554 3.10814C3.7591 3.18061 3.75412 3.25917 3.77121 3.3344C3.7883 3.40963 3.82674 3.47833 3.8819 3.53226C3.93706 3.5862 4.00662 3.62308 4.08221 3.63847L5.95251 4.01069L6.31719 5.46173C6.34645 5.5607 6.41275 5.64457 6.50229 5.6959C6.59183 5.74722 6.69771 5.76205 6.79791 5.7373C6.89811 5.71254 6.9849 5.65011 7.04023 5.56299C7.09556 5.47587 7.11516 5.37078 7.09497 5.26957L6.67581 3.59005L6.24607 1.87422C6.22163 1.77756 6.16205 1.69347 6.07896 1.63836C5.99586 1.58325 5.89522 1.56107 5.79665 1.57615ZM5.61507 2.65497L5.73613 3.14975L5.12177 3.02568L5.61507 2.65497ZM8.33578 5.8173L5.7906 6.24248C5.73864 6.25122 5.6889 6.27011 5.64424 6.29807C5.59958 6.32604 5.56086 6.36252 5.5303 6.40544C5.49974 6.44837 5.47793 6.49689 5.46612 6.54824C5.45432 6.59959 5.45274 6.65276 5.46148 6.70472C5.47023 6.75668 5.48912 6.80641 5.51708 6.85107C5.54505 6.89573 5.58153 6.93445 5.62446 6.965C5.66739 6.99556 5.71591 7.01737 5.76727 7.02918C5.81862 7.04098 5.8718 7.04256 5.92376 7.03382L8.46894 6.61016C8.57362 6.59238 8.66698 6.53381 8.72854 6.4473C8.7901 6.36078 8.81483 6.25339 8.7973 6.14867C8.78903 6.09643 8.7705 6.04634 8.74279 6.00129C8.71507 5.95624 8.67872 5.91712 8.63582 5.88618C8.59292 5.85524 8.54433 5.83309 8.49283 5.82101C8.44134 5.80893 8.38796 5.80867 8.33578 5.8173ZM10.4542 6.66614L5.36691 7.51346C5.2735 7.52919 5.18867 7.57747 5.12746 7.64976C5.06625 7.72204 5.03261 7.81366 5.03249 7.90838V9.81183L2.42679 10.0554C2.37431 10.0605 2.32335 10.076 2.27683 10.1008C2.23032 10.1256 2.18915 10.1594 2.1557 10.2001C2.12225 10.2409 2.09717 10.2879 2.08189 10.3383C2.06661 10.3888 2.06143 10.4418 2.06665 10.4942L2.43738 14.2134L1.57789 14.2966C1.5192 14.3021 1.46243 14.3205 1.41165 14.3504C1.36086 14.3803 1.3173 14.4211 1.28406 14.4698C1.25083 14.5185 1.22874 14.5739 1.21938 14.6321C1.21001 14.6903 1.21359 14.7498 1.22986 14.8065C2.02882 17.5996 3.21516 19.6786 4.76617 21.3551C4.50591 21.4489 4.22748 21.461 3.99445 21.4792C3.43457 21.4671 2.86259 21.2325 2.26185 20.7635C2.22012 20.7312 2.17244 20.7074 2.12153 20.6936C2.07062 20.6797 2.01748 20.676 1.96514 20.6827C1.9128 20.6894 1.86228 20.7063 1.81648 20.7325C1.77068 20.7587 1.73048 20.7936 1.69819 20.8354C1.6659 20.8771 1.64214 20.9248 1.62828 20.9757C1.61442 21.0266 1.61072 21.0797 1.61739 21.132C1.62407 21.1844 1.64098 21.2349 1.66718 21.2807C1.69338 21.3265 1.72834 21.3667 1.77007 21.399C2.46311 21.9376 3.20457 22.2645 3.97932 22.2826C4.6663 22.2977 5.35329 21.9709 6.02212 21.4928C6.6516 21.9346 7.3053 22.269 7.99531 22.2826C8.68532 22.2962 9.37231 21.9679 10.0381 21.4898C10.6479 21.9558 11.2895 22.2947 11.9674 22.2856C12.6635 22.2766 13.355 21.9482 14.0496 21.4943C14.6806 21.9376 15.3327 22.272 16.0197 22.2826C16.7052 22.2932 17.3846 21.9649 18.0444 21.4958C18.6527 21.9134 19.2867 22.2493 19.9782 22.2796C20.7499 22.3129 21.5489 22.0254 22.3237 21.3869C22.4055 21.3187 22.4569 21.2207 22.4666 21.1146C22.4762 21.0085 22.4433 20.9028 22.3751 20.821C22.3069 20.7391 22.2089 20.6877 22.1028 20.6781C21.9967 20.6684 21.891 20.7013 21.8092 20.7695C21.1494 21.3142 20.5729 21.5049 20.013 21.4807C19.8072 21.4679 19.6041 21.4272 19.4093 21.3596C19.8269 18.0384 21.0359 14.9472 23.9034 12.9C24.2348 12.6625 24.0396 12.1389 23.6341 12.1737L19.951 12.5293L16.3193 8.89793C16.2774 8.85653 16.2271 8.82469 16.1717 8.80458C16.1163 8.78447 16.0573 8.77657 15.9985 8.78142L12.7331 9.08858L10.831 6.80383C10.7855 6.75014 10.7269 6.70912 10.6609 6.68473C10.5949 6.66034 10.5237 6.65493 10.4542 6.66614ZM10.3604 7.49531L11.7647 9.17936L5.83448 9.73617V8.25033L10.3604 7.49531ZM15.8866 9.59848L18.9175 12.6292L3.23332 14.1377L2.90344 10.8165L15.8866 9.59848ZM14.3068 10.4791L13.5578 10.5396C13.4516 10.5486 13.3534 10.5995 13.2847 10.6809C13.2161 10.7623 13.1826 10.8677 13.1916 10.9739C13.2006 11.08 13.2514 11.1782 13.3329 11.2469C13.4143 11.3156 13.5197 11.3491 13.6259 11.34L14.3749 11.2765C14.4757 11.2613 14.5669 11.2084 14.6301 11.1284C14.6932 11.0484 14.7235 10.9474 14.7149 10.8459C14.7062 10.7443 14.6592 10.6499 14.5834 10.5818C14.5076 10.5136 14.4087 10.4769 14.3068 10.4791ZM11.9583 10.6728L11.1594 10.7409C11.1068 10.7453 11.0557 10.7601 11.0088 10.7844C10.962 10.8086 10.9203 10.8418 10.8863 10.8821C10.8523 10.9225 10.8266 10.9691 10.8106 11.0194C10.7946 11.0696 10.7887 11.1226 10.7932 11.1751C10.7977 11.2277 10.8124 11.2788 10.8367 11.3257C10.8609 11.3725 10.8942 11.4141 10.9345 11.4481C10.9748 11.4821 11.0214 11.5079 11.0717 11.5238C11.122 11.5398 11.1749 11.5457 11.2275 11.5413L12.0264 11.4732C12.1326 11.4642 12.2308 11.4133 12.2995 11.3319C12.3681 11.2505 12.4017 11.1451 12.3926 11.0389C12.3836 10.9328 12.3328 10.8346 12.2513 10.7659C12.1699 10.6972 12.0645 10.6637 11.9583 10.6728ZM9.56146 10.874L8.7625 10.9406C8.70907 10.9437 8.65681 10.9574 8.60878 10.981C8.56076 11.0046 8.51794 11.0376 8.48286 11.078C8.44778 11.1184 8.42114 11.1655 8.40452 11.2163C8.38789 11.2672 8.38162 11.3209 8.38606 11.3742C8.3905 11.4275 8.40558 11.4794 8.43039 11.5268C8.45521 11.5742 8.48926 11.6162 8.53055 11.6502C8.57183 11.6843 8.61951 11.7097 8.67079 11.725C8.72206 11.7404 8.77588 11.7453 8.82908 11.7395L9.62955 11.6744C9.7357 11.6654 9.83391 11.6146 9.90259 11.5331C9.97126 11.4517 10.0048 11.3463 9.99574 11.2402C9.98671 11.134 9.93588 11.0358 9.85444 10.9672C9.77299 10.8985 9.66761 10.865 9.56146 10.874ZM7.16457 11.0737L6.3641 11.1418C6.31095 11.1454 6.25905 11.1595 6.21142 11.1834C6.16379 11.2072 6.12139 11.2403 6.08669 11.2807C6.052 11.3211 6.0257 11.3681 6.00934 11.4187C5.99298 11.4694 5.98688 11.5229 5.99141 11.5759C5.99593 11.629 6.01098 11.6806 6.03569 11.7278C6.06039 11.775 6.09424 11.8168 6.13528 11.8508C6.17631 11.8847 6.2237 11.9102 6.27468 11.9256C6.32566 11.9411 6.37921 11.9462 6.43219 11.9407L7.23267 11.8726C7.33721 11.8618 7.43333 11.8104 7.50034 11.7295C7.56735 11.6485 7.5999 11.5445 7.59097 11.4398C7.58205 11.335 7.53237 11.238 7.45262 11.1696C7.37287 11.1011 7.26944 11.0667 7.16457 11.0737ZM4.76617 11.275L4.1261 11.3279C4.07295 11.3315 4.02105 11.3456 3.97342 11.3695C3.92579 11.3933 3.88339 11.4264 3.84869 11.4668C3.81399 11.5072 3.7877 11.5542 3.77134 11.6048C3.75498 11.6555 3.74888 11.709 3.75341 11.762C3.75793 11.8151 3.77298 11.8668 3.79768 11.9139C3.82239 11.9611 3.85624 12.0029 3.89728 12.0369C3.93831 12.0708 3.9857 12.0963 4.03668 12.1117C4.08766 12.1272 4.14121 12.1323 4.19419 12.1268L4.83427 12.0739C4.93881 12.0631 5.03493 12.0117 5.10194 11.9307C5.16895 11.8497 5.2015 11.7457 5.19257 11.641C5.18365 11.5363 5.13397 11.4393 5.05422 11.3708C4.97447 11.3023 4.87104 11.2679 4.76617 11.275ZM22.3585 13.1043C20.0009 15.1696 19.0597 18.0036 18.6512 21.001C18.5299 20.9264 18.4123 20.8461 18.2986 20.7605C18.2274 20.7063 18.1403 20.6776 18.0509 20.6787C17.9615 20.6797 17.8751 20.7107 17.8053 20.7665C17.1743 21.281 16.5947 21.4898 16.0349 21.4792C15.475 21.4701 14.9 21.2386 14.2947 20.7635C14.2266 20.7102 14.1431 20.6804 14.0566 20.6785C13.9702 20.6766 13.8854 20.7027 13.815 20.7529C13.1311 21.2416 12.5137 21.4761 11.9568 21.4837C11.3985 21.4898 10.8704 21.2825 10.3044 20.7786C10.2328 20.715 10.1408 20.6791 10.0451 20.6775C9.94933 20.6758 9.85615 20.7085 9.78238 20.7695C9.14836 21.2855 8.57183 21.4913 8.01044 21.4807C7.45056 21.4686 6.87555 21.2356 6.27331 20.7635C6.20153 20.7075 6.11284 20.6776 6.02181 20.6787C5.93079 20.6798 5.84284 20.7118 5.77244 20.7695C5.68165 20.8432 5.59237 20.9103 5.50461 20.9708C4.06406 19.4577 2.97759 17.5603 2.18771 15.0425L22.3585 13.1043ZM16.4691 13.9092L15.6702 13.9849C15.6176 13.99 15.5666 14.0053 15.52 14.0301C15.4733 14.0549 15.4321 14.0887 15.3985 14.1294C15.3649 14.1701 15.3397 14.2171 15.3242 14.2676C15.3088 14.3181 15.3035 14.3711 15.3085 14.4237C15.3136 14.4762 15.329 14.5273 15.3538 14.5739C15.3786 14.6205 15.4123 14.6618 15.453 14.6954C15.4938 14.729 15.5408 14.7542 15.5913 14.7696C15.6418 14.785 15.6948 14.7904 15.7474 14.7853L16.5478 14.7051C16.603 14.7037 16.6572 14.691 16.7072 14.6677C16.7572 14.6444 16.8018 14.6111 16.8383 14.5698C16.8749 14.5285 16.9024 14.48 16.9194 14.4276C16.9364 14.3751 16.9423 14.3197 16.9369 14.2648C16.9315 14.21 16.9148 14.1568 16.8879 14.1087C16.861 14.0605 16.8244 14.0185 16.7805 13.9851C16.7366 13.9517 16.6863 13.9278 16.6327 13.9147C16.5792 13.9017 16.5235 13.8998 16.4691 13.9092ZM14.0753 14.1392L13.2763 14.2164C13.2239 14.2214 13.1729 14.2366 13.1263 14.2613C13.0798 14.2859 13.0385 14.3195 13.0049 14.3601C12.9713 14.4007 12.9461 14.4476 12.9306 14.4979C12.9151 14.5483 12.9097 14.6012 12.9147 14.6537C12.9196 14.7061 12.9349 14.7571 12.9596 14.8037C12.9842 14.8502 13.0178 14.8915 13.0584 14.9251C13.099 14.9586 13.1459 14.9839 13.1962 14.9994C13.2466 15.0149 13.2995 15.0203 13.352 15.0153L14.1525 14.9396C14.205 14.9347 14.2561 14.9194 14.3027 14.8947C14.3494 14.87 14.3907 14.8364 14.4244 14.7957C14.458 14.755 14.4834 14.7081 14.4989 14.6576C14.5144 14.6072 14.5198 14.5542 14.5149 14.5016C14.5099 14.4491 14.4946 14.398 14.4699 14.3513C14.4452 14.3047 14.4116 14.2634 14.3709 14.2297C14.3302 14.196 14.2833 14.1707 14.2328 14.1552C14.1824 14.1397 14.1278 14.1343 14.0753 14.1392ZM11.6799 14.3707L10.881 14.4464C10.7746 14.4566 10.6767 14.5087 10.6087 14.5911C10.5407 14.6735 10.5083 14.7796 10.5185 14.8859C10.5288 14.9923 10.5808 15.0902 10.6633 15.1582C10.7457 15.2261 10.8518 15.2585 10.9581 15.2483L11.7571 15.1696C11.863 15.1596 11.9607 15.1079 12.0285 15.0259C12.0963 14.9439 12.1288 14.8383 12.1187 14.7324C12.1087 14.6264 12.057 14.5288 11.975 14.461C11.893 14.3932 11.7859 14.3607 11.6799 14.3707ZM9.28606 14.6053L8.4871 14.6809C8.43284 14.6834 8.37966 14.6969 8.33077 14.7205C8.28188 14.7442 8.23831 14.7775 8.20269 14.8185C8.16708 14.8595 8.14016 14.9073 8.12357 14.959C8.10699 15.0107 8.10108 15.0653 8.10621 15.1193C8.11134 15.1734 8.1274 15.2259 8.15342 15.2735C8.17943 15.3212 8.21486 15.3631 8.25755 15.3966C8.30024 15.4302 8.34931 15.4548 8.40177 15.4688C8.45423 15.4828 8.509 15.4861 8.56276 15.4783L9.36323 15.4011C9.41571 15.396 9.46667 15.3806 9.51319 15.3558C9.5597 15.3309 9.60086 15.2972 9.63432 15.2564C9.66777 15.2157 9.69285 15.1687 9.70813 15.1183C9.72341 15.0678 9.72859 15.0148 9.72337 14.9623C9.71229 14.8572 9.66012 14.7607 9.57821 14.6938C9.49631 14.6269 9.39131 14.5951 9.28606 14.6053ZM6.89069 14.8352L6.09172 14.9124C6.03926 14.9175 5.98831 14.9328 5.94179 14.9576C5.89526 14.9823 5.85406 15.016 5.82055 15.0567C5.78704 15.0974 5.76187 15.1442 5.74647 15.1946C5.73108 15.2451 5.72576 15.298 5.73083 15.3504C5.7359 15.4029 5.75125 15.4539 5.776 15.5004C5.80076 15.5469 5.83444 15.5881 5.87512 15.6216C5.9158 15.6551 5.96268 15.6803 6.01308 15.6957C6.06349 15.7111 6.11644 15.7164 6.1689 15.7113L6.96786 15.6357C7.02052 15.6307 7.07168 15.6154 7.11843 15.5907C7.16518 15.5659 7.2066 15.5322 7.24032 15.4915C7.27405 15.4507 7.29941 15.4037 7.31498 15.3532C7.33054 15.3026 7.33599 15.2495 7.33102 15.1969C7.32605 15.1442 7.31076 15.0931 7.28602 15.0463C7.26128 14.9996 7.22757 14.9581 7.18682 14.9244C7.14608 14.8907 7.09908 14.8653 7.04853 14.8498C6.99798 14.8342 6.94486 14.8288 6.8922 14.8337L6.89069 14.8352ZM4.49683 15.0667L3.69787 15.1424C3.64531 15.1474 3.59424 15.1626 3.54758 15.1873C3.50092 15.212 3.45959 15.2457 3.42593 15.2864C3.39228 15.327 3.36697 15.3739 3.35145 15.4244C3.33592 15.4749 3.33049 15.5279 3.33546 15.5804C3.34043 15.633 3.3557 15.6841 3.3804 15.7307C3.4051 15.7774 3.43876 15.8187 3.47943 15.8523C3.52011 15.886 3.56702 15.9113 3.61748 15.9268C3.66794 15.9424 3.72096 15.9478 3.77352 15.9428L4.574 15.8657C4.62646 15.8606 4.67741 15.8452 4.72394 15.8205C4.77046 15.7957 4.81166 15.762 4.84517 15.7214C4.87869 15.6807 4.90386 15.6338 4.91925 15.5834C4.93465 15.533 4.93996 15.4801 4.93489 15.4276C4.92983 15.3752 4.91448 15.3242 4.88972 15.2777C4.86496 15.2312 4.83128 15.19 4.7906 15.1565C4.74993 15.123 4.70305 15.0978 4.65264 15.0824C4.60223 15.067 4.54929 15.0617 4.49683 15.0667Z" fill="white"/>
</svg>
