<svg width="25" height="24" viewBox="0 0 25 24" fill="none" xmlns="http://www.w3.org/2000/svg">
<path d="M18.3798 5.21876H16.5584V3.89791C16.5584 3.65213 16.3422 3.4176 16.0885 3.42886C15.9646 3.43126 15.8465 3.48145 15.7588 3.5689C15.6712 3.65635 15.6209 3.77426 15.6185 3.89791V5.21876H9.03952V3.89791C9.03952 3.65213 8.82335 3.4176 8.56959 3.42886C8.44571 3.43126 8.32757 3.48145 8.23996 3.5689C8.15235 3.65635 8.10206 3.77426 8.09966 3.89791V5.21876H6.27821C5.65527 5.21951 5.05806 5.46684 4.61758 5.9065C4.1771 6.34616 3.9293 6.94225 3.92856 7.56403V17.8832C3.92856 19.1768 4.98308 20.2285 6.27821 20.2285H18.3789C19.675 20.2285 20.7286 19.1768 20.7286 17.8832V7.56403C20.7286 6.94219 20.4811 6.3458 20.0407 5.90601C19.6003 5.46621 19.0028 5.21901 18.3798 5.21876ZM6.27821 6.15687H8.09966V6.71223C8.09966 6.95801 8.31582 7.19254 8.56959 7.18128C8.82429 7.17002 9.03952 6.9749 9.03952 6.71223V6.15687H15.6185V6.71223C15.6185 6.95801 15.8347 7.19254 16.0885 7.18128C16.3432 7.17002 16.5584 6.9749 16.5584 6.71223V6.15687H18.3789C19.1562 6.15687 19.7887 6.78822 19.7887 7.56403V9.04999H4.86842V7.56403C4.86842 6.78822 5.50094 6.15687 6.27821 6.15687ZM18.3798 19.2904H6.27821C5.50094 19.2904 4.86842 18.659 4.86842 17.8832V9.9881H19.7887V17.8832C19.7887 18.2562 19.6403 18.614 19.3761 18.8779C19.1119 19.1417 18.7536 19.2901 18.3798 19.2904Z" fill="white"/>
</svg>
