<svg width="30" height="30" viewBox="0 0 30 30" fill="none" xmlns="http://www.w3.org/2000/svg">
<path d="M19.6 8.82C18.9166 8.03953 18.5399 7.0374 18.54 6H15.45V18.4C15.4267 19.0712 15.1435 19.7071 14.6603 20.1735C14.1771 20.6399 13.5316 20.9004 12.86 20.9C11.44 20.9 10.26 19.74 10.26 18.3C10.26 16.58 11.92 15.29 13.63 15.82V12.66C10.18 12.2 7.16 14.88 7.16 18.3C7.16 21.63 9.92 24 12.85 24C15.99 24 18.54 21.45 18.54 18.3V12.01C19.793 12.9099 21.2974 13.3926 22.84 13.39V10.3C22.84 10.3 20.96 10.39 19.6 8.82Z" fill="white"/>
</svg>
